<!-- Generated by IcoMoon.io -->
<svg version="1.1" xmlns="http://www.w3.org/2000/svg" width="18" height="18" viewBox="0 0 18 18">
<title>University-18</title>
<path d="M17.5 5c0.276 0 0.5-0.224 0.5-0.5v-4c0-0.276-0.224-0.5-0.5-0.5h-17c-0.276 0-0.5 0.224-0.5 0.5v4c0 0.276 0.224 0.5 0.5 0.5h0.5v10h-0.5c-0.276 0-0.5 0.224-0.5 0.5v2c0 0.276 0.224 0.5 0.5 0.5h17c0.276 0 0.5-0.224 0.5-0.5v-2c0-0.276-0.224-0.5-0.5-0.5h-0.5v-10h0.5zM17 4h-3.293l-3-3h6.293v3zM13 15v-10h1v10h-1zM10 15h-2v-4h2v4zM10.5 10h-3c-0.276 0-0.5 0.224-0.5 0.5v4.5h-1v-10h6v10h-1v-4.5c0-0.276-0.224-0.5-0.5-0.5zM4 15v-10h1v10h-1zM9.293 1l3 3h-6.586l3-3h0.586zM1 1h6.293l-3 3h-3.293v-3zM2 5h1v10h-1v-10zM17 17h-16v-1h16v1zM16 15h-1v-10h1v10z"></path>
<path d="M11 6.5c0-0.276-0.224-0.5-0.5-0.5h-3c-0.276 0-0.5 0.224-0.5 0.5v2c0 0.276 0.224 0.5 0.5 0.5h3c0.276 0 0.5-0.224 0.5-0.5v-2zM10 8h-2v-1h2v1z"></path>
</svg>
