<!-- Generated by IcoMoon.io -->
<svg version="1.1" xmlns="http://www.w3.org/2000/svg" width="32" height="32" viewBox="0 0 32 32">
<title>Channel-12</title>
<path d="M31.859 30.069l-3.483-6.96 3.592-16.155c0.088-0.395-0.008-0.808-0.264-1.123-0.251-0.315-0.635-0.499-1.037-0.499h-4.856l0.827-3.712c0.085-0.395-0.011-0.805-0.264-1.123-0.253-0.315-0.637-0.499-1.040-0.499h-24c-0.461 0-0.891 0.24-1.133 0.632s-0.267 0.885-0.059 1.296l3.483 6.96-3.592 16.157c-0.088 0.395 0.008 0.805 0.261 1.123s0.635 0.499 1.040 0.499h4.856l-0.824 3.712c-0.088 0.395 0.008 0.808 0.261 1.123 0.253 0.317 0.635 0.499 1.040 0.499h24c0.461 0 0.891-0.24 1.136-0.632 0.243-0.395 0.261-0.883 0.056-1.299zM5.333 24h-2.336l3.333-14.995c0.067-0.299 0.027-0.611-0.109-0.885l-2.731-5.453h20.181l-0.595 2.667h-11.077c-0.624 0-1.165 0.435-1.301 1.045l-3.917 17.621h-1.448zM22.488 8l-3.557 16h-9.416l3.555-16h9.419zM8.331 29.333l0.592-2.667h11.077c0.624 0 1.168-0.435 1.301-1.045l3.917-17.621h3.787l-3.333 14.992c-0.064 0.299-0.029 0.613 0.109 0.885l2.728 5.456h-20.179z"></path>
</svg>
