<!-- Generated by IcoMoon.io -->
<svg version="1.1" xmlns="http://www.w3.org/2000/svg" width="17" height="18" viewBox="0 0 17 18">
<title>Grades-18</title>
<path d="M16.5 0h-16c-0.276 0-0.5 0.224-0.5 0.5v17c0 0.276 0.224 0.5 0.5 0.5h13c0.133 0 0.26-0.053 0.354-0.146l3-3c0.093-0.094 0.146-0.221 0.146-0.354v-14c0-0.276-0.224-0.5-0.5-0.5zM1 17v-16h15v13h-2.5c-0.276 0-0.5 0.224-0.5 0.5v2.5h-12zM15.293 15l-1.293 1.293v-1.293h1.293z"></path>
<path d="M10.5 12h-7c-0.275 0-0.5 0.225-0.5 0.5s0.225 0.5 0.5 0.5h7c0.275 0 0.5-0.225 0.5-0.5s-0.225-0.5-0.5-0.5z"></path>
<path d="M14 10.5c0-0.275-0.225-0.5-0.5-0.5h-10c-0.275 0-0.5 0.225-0.5 0.5s0.225 0.5 0.5 0.5h10c0.275 0 0.5-0.225 0.5-0.5z"></path>
<path d="M10.5 14h-7c-0.275 0-0.5 0.225-0.5 0.5s0.225 0.5 0.5 0.5h7c0.275 0 0.5-0.225 0.5-0.5s-0.225-0.5-0.5-0.5z"></path>
<path d="M3.5 7c-0.275 0-0.5 0.225-0.5 0.5s0.225 0.5 0.5 0.5h2c0.275 0 0.5-0.225 0.5-0.5s-0.225-0.5-0.5-0.5h-0.5v-3.5c0-0.065-0.014-0.13-0.039-0.192-0.016-0.037-0.042-0.067-0.066-0.099-0.015-0.021-0.023-0.044-0.041-0.063s-0.042-0.026-0.063-0.041c-0.032-0.024-0.062-0.050-0.099-0.066-0.123-0.051-0.261-0.051-0.384 0-0.037 0.016-0.067 0.042-0.099 0.066-0.021 0.015-0.044 0.023-0.063 0.041l-1 1c-0.195 0.195-0.195 0.512 0 0.707 0.098 0.098 0.226 0.147 0.354 0.147s0.256-0.049 0.354-0.146l0.146-0.147v2.293h-0.5z"></path>
<path d="M11.5 8h2c0.276 0 0.5-0.224 0.5-0.5v-4c0-0.276-0.224-0.5-0.5-0.5h-2c-0.276 0-0.5 0.224-0.5 0.5v4c0 0.276 0.224 0.5 0.5 0.5zM12 4h1v3h-1v-3z"></path>
<path d="M7.5 8h2c0.276 0 0.5-0.224 0.5-0.5v-4c0-0.276-0.224-0.5-0.5-0.5h-2c-0.276 0-0.5 0.224-0.5 0.5v4c0 0.276 0.224 0.5 0.5 0.5zM8 4h1v3h-1v-3z"></path>
</svg>
