<!-- Generated by IcoMoon.io -->
<svg version="1.1" xmlns="http://www.w3.org/2000/svg" width="18" height="18" viewBox="0 0 18 18">
<title>Link-18</title>
<path d="M17.657 3.21l-8.471-3.176c-0.12-0.044-0.252-0.044-0.373 0l-8.471 3.176c-0.206 0.077-0.343 0.275-0.343 0.496v10.588c0 0.22 0.137 0.418 0.343 0.496l8.471 3.176c0.060 0.022 0.123 0.034 0.186 0.034s0.126-0.012 0.186-0.034l8.471-3.176c0.206-0.077 0.343-0.275 0.343-0.496v-10.588c0-0.22-0.137-0.418-0.343-0.496zM16.941 13.926l-7.941 2.978-7.941-2.978v-9.852l7.941-2.978 7.941 2.978v9.852z"></path>
<path d="M7.566 7.257l1.214 1.213-0.31 0.31-1.213-1.214c-0.206-0.206-0.542-0.206-0.749 0l-3.176 3.176c-0.206 0.204-0.206 0.542 0 0.749l3.176 3.176c0.103 0.104 0.238 0.156 0.374 0.156s0.271-0.052 0.375-0.155l3.176-3.176c0.206-0.204 0.206-0.542 0-0.749l-1.214-1.214 0.31-0.31 1.213 1.213c0.104 0.104 0.239 0.156 0.375 0.156s0.271-0.052 0.375-0.155l3.176-3.176c0.206-0.206 0.206-0.542 0-0.749l-3.176-3.176c-0.204-0.206-0.542-0.206-0.749 0l-3.176 3.176c-0.208 0.206-0.208 0.541-0.001 0.749zM9.31 11.118l-2.428 2.428-2.428-2.428 2.428-2.428 0.84 0.84-1.213 1.213c-0.206 0.204-0.206 0.542 0 0.749 0.103 0.104 0.238 0.156 0.374 0.156s0.271-0.052 0.375-0.155l1.213-1.214 0.84 0.84zM11.118 4.454l2.428 2.428-2.428 2.428-0.84-0.84 1.213-1.213c0.204-0.206 0.204-0.542 0-0.749-0.206-0.206-0.544-0.206-0.749 0l-1.213 1.213-0.84-0.84 2.428-2.428z"></path>
</svg>
