<!-- Generated by IcoMoon.io -->
<svg version="1.1" xmlns="http://www.w3.org/2000/svg" width="21" height="18" viewBox="0 0 21 18">
<title>Keyboard-18</title>
<path d="M0 0v18h21.176v-18h-21.176zM20.118 16.941h-19.059v-15.882h19.059v15.882z"></path>
<path d="M18 12.706h-14.824v2.118h14.824z"></path>
<path d="M3.176 3.176h2.118v2.118h-2.118v-2.118z"></path>
<path d="M3.176 6.353h2.118v2.118h-2.118v-2.118z"></path>
<path d="M3.176 9.529h2.118v2.118h-2.118v-2.118z"></path>
<path d="M6.353 3.176h2.118v2.118h-2.118v-2.118z"></path>
<path d="M6.353 6.353h2.118v2.118h-2.118v-2.118z"></path>
<path d="M6.353 9.529h2.118v2.118h-2.118v-2.118z"></path>
<path d="M9.529 3.176h2.118v2.118h-2.118v-2.118z"></path>
<path d="M9.529 6.353h2.118v2.118h-2.118v-2.118z"></path>
<path d="M9.529 9.529h2.118v2.118h-2.118v-2.118z"></path>
<path d="M12.706 3.176h2.118v2.118h-2.118v-2.118z"></path>
<path d="M12.706 6.353h2.118v2.118h-2.118v-2.118z"></path>
<path d="M12.706 9.529h2.118v2.118h-2.118v-2.118z"></path>
<path d="M15.882 3.176h2.118v2.118h-2.118v-2.118z"></path>
<path d="M15.882 6.353h2.118v2.118h-2.118v-2.118z"></path>
<path d="M15.882 9.529h2.118v2.118h-2.118v-2.118z"></path>
</svg>
