<!-- Generated by IcoMoon.io -->
<svg version="1.1" xmlns="http://www.w3.org/2000/svg" width="32" height="32" viewBox="0 0 32 32">
<title>SMS</title>
<path d="M31.333 0h-30.667c-0.368 0-0.667 0.299-0.667 0.667v24c0 0.368 0.299 0.667 0.667 0.667h10v6c0 0.269 0.163 0.513 0.412 0.616 0.083 0.035 0.169 0.051 0.255 0.051 0.173 0 0.344-0.068 0.472-0.195l6.472-6.472h13.056c0.368 0 0.667-0.299 0.667-0.667v-24c0-0.368-0.299-0.667-0.667-0.667zM10.276 14.276l-1.333 1.333c-0.26 0.26-0.601 0.391-0.943 0.391s-0.683-0.131-0.943-0.391l-1.333-1.333c-0.521-0.521-0.521-1.364 0-1.885l1.333-1.333c0.521-0.521 1.364-0.521 1.885 0l1.333 1.333c0.521 0.521 0.521 1.364 0 1.885zM18.276 14.276l-1.333 1.333c-0.26 0.26-0.601 0.391-0.943 0.391s-0.683-0.131-0.943-0.391l-1.333-1.333c-0.521-0.521-0.521-1.364 0-1.885l1.333-1.333c0.521-0.521 1.364-0.521 1.885 0l1.333 1.333c0.521 0.521 0.521 1.364 0 1.885zM26.276 14.276l-1.333 1.333c-0.26 0.26-0.601 0.391-0.943 0.391s-0.683-0.131-0.943-0.391l-1.333-1.333c-0.521-0.521-0.521-1.364 0-1.885l1.333-1.333c0.521-0.521 1.364-0.521 1.885 0l1.333 1.333c0.521 0.521 0.521 1.364 0 1.885z"></path>
</svg>
