<!-- Generated by IcoMoon.io -->
<svg version="1.1" xmlns="http://www.w3.org/2000/svg" width="17" height="18" viewBox="0 0 17 18">
<title>Grades-Percent-18</title>
<path d="M16.5 0h-16c-0.276 0-0.5 0.224-0.5 0.5v17c0 0.276 0.224 0.5 0.5 0.5h13c0.133 0 0.26-0.053 0.354-0.146l3-3c0.093-0.094 0.146-0.221 0.146-0.354v-14c0-0.276-0.224-0.5-0.5-0.5zM1 17v-16h15v13h-2.5c-0.276 0-0.5 0.224-0.5 0.5v2.5h-12zM15.293 15l-1.293 1.293v-1.293h1.293z"></path>
<path d="M10.5 12h-7c-0.275 0-0.5 0.225-0.5 0.5s0.225 0.5 0.5 0.5h7c0.275 0 0.5-0.225 0.5-0.5s-0.225-0.5-0.5-0.5z"></path>
<path d="M6.5 7c-0.275 0-0.5 0.225-0.5 0.5s0.225 0.5 0.5 0.5h1c0.088 0 0.167-0.030 0.24-0.070 0.020-0.011 0.035-0.023 0.053-0.036 0.066-0.050 0.122-0.11 0.157-0.185 0.002-0.003 0.006-0.005 0.008-0.009l1.619-3.7h0.923c0.275 0 0.5-0.225 0.5-0.5s-0.225-0.5-0.5-0.5h-1c-0.044 0-0.084 0.015-0.125 0.025-0.234-0.063-0.484 0.046-0.583 0.275l-1.619 3.7h-0.673z"></path>
<path d="M14 10.5c0-0.275-0.225-0.5-0.5-0.5h-10c-0.275 0-0.5 0.225-0.5 0.5s0.225 0.5 0.5 0.5h10c0.275 0 0.5-0.225 0.5-0.5z"></path>
<path d="M10.5 14h-7c-0.275 0-0.5 0.225-0.5 0.5s0.225 0.5 0.5 0.5h7c0.275 0 0.5-0.225 0.5-0.5s-0.225-0.5-0.5-0.5z"></path>
<path d="M10 5.5v2c0 0.276 0.224 0.5 0.5 0.5h2c0.276 0 0.5-0.224 0.5-0.5v-2c0-0.276-0.224-0.5-0.5-0.5h-2c-0.276 0-0.5 0.224-0.5 0.5zM11 6h1v1h-1v-1z"></path>
<path d="M4.5 6h2c0.276 0 0.5-0.224 0.5-0.5v-2c0-0.276-0.224-0.5-0.5-0.5h-2c-0.276 0-0.5 0.224-0.5 0.5v2c0 0.276 0.224 0.5 0.5 0.5zM5 4h1v1h-1v-1z"></path>
</svg>
