<!-- Generated by IcoMoon.io -->
<svg version="1.1" xmlns="http://www.w3.org/2000/svg" width="36" height="36" viewBox="0 0 36 36">
<title>Play-Hexagon-32</title>
<path d="M35.693 9.358l-17.42-9.29c-0.171-0.091-0.375-0.091-0.547 0l-17.42 9.29c-0.188 0.101-0.307 0.297-0.307 0.512v16.258c0 0.215 0.118 0.411 0.308 0.512l17.42 9.29c0.085 0.045 0.179 0.069 0.273 0.069s0.188-0.023 0.273-0.069l17.42-9.29c0.189-0.101 0.308-0.297 0.308-0.512v-16.258c0-0.215-0.118-0.411-0.308-0.512zM34.839 25.78l-16.839 8.98-16.839-8.98v-15.562l16.839-8.98 16.839 8.98v15.562z"></path>
<path d="M14.242 10.52c-0.188 0.101-0.307 0.297-0.307 0.512v13.936c0 0.215 0.118 0.411 0.307 0.511 0.086 0.046 0.18 0.070 0.274 0.070 0.113 0 0.225-0.033 0.322-0.098l10.452-6.968c0.161-0.108 0.259-0.289 0.259-0.483s-0.098-0.375-0.259-0.483l-10.452-6.968c-0.178-0.118-0.408-0.129-0.596-0.029zM15.097 12.116l8.825 5.883-8.825 5.882v-11.765z"></path>
</svg>
