<!-- Generated by IcoMoon.io -->
<svg version="1.1" xmlns="http://www.w3.org/2000/svg" width="32" height="32" viewBox="0 0 32 32">
<title>University-24</title>
<path d="M31.333 8c0.368 0 0.667-0.299 0.667-0.667v-6.667c0-0.368-0.299-0.667-0.667-0.667h-30.667c-0.368 0-0.667 0.299-0.667 0.667v6.667c0 0.368 0.299 0.667 0.667 0.667h0.667v18.667h-0.667c-0.368 0-0.667 0.299-0.667 0.667v4c0 0.368 0.299 0.667 0.667 0.667h30.667c0.368 0 0.667-0.299 0.667-0.667v-4c0-0.368-0.299-0.667-0.667-0.667h-0.667v-18.667h0.667zM30.667 6.667h-7.057l-5.333-5.333h12.391v5.333zM25.333 26.667h-2.667v-18.667h2.667v18.667zM20 26.667v-7.333c0-0.368-0.299-0.667-0.667-0.667h-6.667c-0.368 0-0.667 0.299-0.667 0.667v7.333h-1.333v-18.667h10.667v18.667h-1.333zM18.667 26.667h-5.333v-6.667h5.333v6.667zM6.667 8h2.667v18.667h-2.667v-18.667zM16.391 1.333l5.333 5.333h-11.448l5.333-5.333h0.781zM1.333 1.333h12.391l-5.333 5.333h-7.057v-5.333zM2.667 8h2.667v18.667h-2.667v-18.667zM30.667 30.667h-29.333v-2.667h29.333v2.667zM29.333 26.667h-2.667v-18.667h2.667v18.667z"></path>
<path d="M18 10.667h-4c-0.368 0-0.667 0.299-0.667 0.667v4c0 0.368 0.299 0.667 0.667 0.667h4c0.368 0 0.667-0.299 0.667-0.667v-4c0-0.368-0.299-0.667-0.667-0.667zM17.333 14.667h-2.667v-2.667h2.667v2.667z"></path>
</svg>
