<!-- Generated by IcoMoon.io -->
<svg version="1.1" xmlns="http://www.w3.org/2000/svg" width="44" height="36" viewBox="0 0 44 36">
<title>Heart-12</title>
<path d="M43.416 8.584l-8-8c-0.376-0.372-0.884-0.584-1.416-0.584h-4c-0.532 0-1.040 0.212-1.416 0.584l-6.584 6.588-6.584-6.588c-0.376-0.372-0.884-0.584-1.416-0.584h-4c-0.532 0-1.040 0.212-1.416 0.584l-8 8c-0.372 0.376-0.584 0.884-0.584 1.416v4c0 0.532 0.212 1.040 0.584 1.416l20 20c0.392 0.388 0.904 0.584 1.416 0.584s1.024-0.196 1.416-0.584l20-20c0.372-0.376 0.584-0.884 0.584-1.416v-4c0-0.532-0.212-1.040-0.584-1.416zM40 13.172l-18 18-18-18v-2.344l6.828-6.828h2.344l7.416 7.416c0.78 0.78 2.048 0.78 2.828 0l7.412-7.416h2.344l6.828 6.828v2.344z"></path>
</svg>
