<!-- Generated by IcoMoon.io -->
<svg version="1.1" xmlns="http://www.w3.org/2000/svg" width="17" height="18" viewBox="0 0 17 18">
<title>Ban-18</title>
<path d="M16.99 3.47c-0.005-0.088-0.024-0.175-0.078-0.253 0 0 0 0-0.001 0-0.001-0.002-0.003-0.002-0.004-0.004-0.054-0.076-0.126-0.125-0.205-0.16-0.011-0.005-0.016-0.017-0.026-0.021l-8-3c-0.113-0.042-0.238-0.042-0.352 0l-8 3c-0.195 0.073-0.324 0.26-0.324 0.468v11c0 0.011 0.009 0.020 0.010 0.030 0.005 0.088 0.025 0.175 0.078 0.253 0 0 0.001 0 0.001 0.001s0.002 0.001 0.002 0.002c0.056 0.079 0.131 0.131 0.214 0.166 0.008 0.004 0.011 0.013 0.020 0.016l8 3c0.056 0.021 0.115 0.032 0.175 0.032s0.119-0.011 0.176-0.032l8-3c0.195-0.073 0.324-0.26 0.324-0.468v-11c0-0.011-0.009-0.020-0.010-0.030zM8.5 1.034l6.926 2.597-14.426 9.919v-9.703l7.5-2.813zM8.5 16.966l-6.926-2.598 14.426-9.917v9.703l-7.5 2.812z"></path>
</svg>
