<!-- Generated by IcoMoon.io -->
<svg version="1.1" xmlns="http://www.w3.org/2000/svg" width="18" height="18" viewBox="0 0 18 18">
<title>Bookmark-18</title>
<path d="M17.5 14c0.276 0 0.5-0.224 0.5-0.5v-13c0-0.276-0.224-0.5-0.5-0.5h-15c-0.023 0-0.042 0.010-0.064 0.013s-0.041 0.007-0.063 0.012c-0.086 0.024-0.166 0.061-0.227 0.122l-2 2c-0.093 0.093-0.146 0.22-0.146 0.353v13c0 0.086 0.030 0.168 0.074 0.244 0.011 0.021 0.022 0.037 0.037 0.056 0.013 0.018 0.020 0.038 0.036 0.054l2 2c0.093 0.093 0.22 0.146 0.353 0.146h15c0.276 0 0.5-0.224 0.5-0.5s-0.224-0.5-0.5-0.5h-14.793l-1.5-1.5 1.5-1.5h14.793zM14 1v7.691l-1.276-0.638c-0.071-0.035-0.148-0.053-0.224-0.053s-0.153 0.018-0.224 0.053l-1.276 0.638v-7.691h3zM1 14.293v-11.586l1-1v11.586l-1 1zM3 13v-12h7v8.5c0 0.173 0.090 0.334 0.237 0.425 0.146 0.090 0.331 0.099 0.486 0.022l1.777-0.888 1.776 0.888c0.071 0.035 0.148 0.053 0.224 0.053 0.092 0 0.183-0.025 0.263-0.075 0.147-0.091 0.237-0.252 0.237-0.425v-8.5h2v12h-14z"></path>
<path d="M3.5 15c-0.276 0-0.5 0.224-0.5 0.5s0.224 0.5 0.5 0.5h13c0.276 0 0.5-0.224 0.5-0.5s-0.224-0.5-0.5-0.5h-13z"></path>
</svg>
