<!-- Generated by IcoMoon.io -->
<svg version="1.1" xmlns="http://www.w3.org/2000/svg" width="17" height="18" viewBox="0 0 17 18">
<title>Cake-18</title>
<path d="M16.725 12.053l-1.725-0.862v-4.691c0-0.167-0.084-0.323-0.223-0.416l-3-2c-0.082-0.055-0.177-0.084-0.277-0.084h-2.5v-1h-1v1h-2.5c-0.099 0-0.195 0.029-0.277 0.084l-3 2c-0.14 0.093-0.223 0.249-0.223 0.416v4.691l-1.724 0.86c-0.169 0.088-0.276 0.26-0.276 0.449v3c0 0.167 0.083 0.323 0.223 0.416l3 2c0.082 0.055 0.178 0.084 0.277 0.084h10c0.1 0 0.195-0.029 0.277-0.084l3-2c0.139-0.093 0.223-0.249 0.223-0.416v-3c0-0.189-0.107-0.361-0.275-0.447zM14 8.232l-2.65 1.768h-5.699l-2.651-1.768v-0.798l2.223 1.482c0.082 0.055 0.178 0.084 0.277 0.084h6c0.1 0 0.195-0.029 0.277-0.084l2.223-1.482v0.798zM3 9.434l2.223 1.482c0.082 0.055 0.178 0.084 0.277 0.084h6c0.1 0 0.195-0.029 0.277-0.084l2.223-1.482v3.798l-2.65 1.768h-5.699l-2.651-1.768v-3.798zM5.651 5h2.349v2h1v-2h2.35l2.25 1.5-2.25 1.5h-5.699l-2.25-1.5 2.25-1.5zM16 15.232l-2.65 1.768h-9.699l-2.651-1.768v-2.424l1-0.5v1.192c0 0.167 0.083 0.323 0.223 0.416l3 2c0.082 0.055 0.178 0.084 0.277 0.084h6c0.1 0 0.195-0.029 0.277-0.084l3-2c0.139-0.093 0.223-0.249 0.223-0.416v-1.191l1 0.5v2.423z"></path>
<path d="M8.5 2c0.128 0 0.256-0.049 0.354-0.146l1-1c0.195-0.195 0.195-0.512 0-0.707-0.194-0.195-0.512-0.195-0.707 0l-1 1c-0.195 0.195-0.195 0.512 0 0.707 0.097 0.097 0.225 0.146 0.353 0.146z"></path>
</svg>
