<!-- Generated by IcoMoon.io -->
<svg version="1.1" xmlns="http://www.w3.org/2000/svg" width="17" height="18" viewBox="0 0 17 18">
<title>Calendar-18</title>
<path d="M15 1v-0.5c0-0.275-0.225-0.5-0.5-0.5s-0.5 0.225-0.5 0.5v0.5h-2v-0.5c0-0.275-0.225-0.5-0.5-0.5s-0.5 0.225-0.5 0.5v0.5h-5v-0.5c0-0.275-0.225-0.5-0.5-0.5s-0.5 0.225-0.5 0.5v0.5h-2v-0.5c0-0.275-0.225-0.5-0.5-0.5s-0.5 0.225-0.5 0.5v0.5h-2v17h17v-17h-2zM1 6h3v3h-3v-3zM12 9h-3v-3h3v3zM12 13h-3v-3h3v3zM5 10h3v3h-3v-3zM8 9h-3v-3h3v3zM1 10h3v3h-3v-3zM4 17h-3v-3h3v3zM8 17h-3v-3h3v3zM12 17h-3v-3h3v3zM16 17h-3v-3h3v3zM16 13h-3v-3h3v3zM16 9h-3v-3h3v3zM13 5h-12v-3h1v0.5c0 0.275 0.225 0.5 0.5 0.5s0.5-0.225 0.5-0.5v-0.5h2v0.5c0 0.275 0.225 0.5 0.5 0.5s0.5-0.225 0.5-0.5v-0.5h5v0.5c0 0.275 0.225 0.5 0.5 0.5s0.5-0.225 0.5-0.5v-0.5h2v0.5c0 0.275 0.225 0.5 0.5 0.5s0.5-0.225 0.5-0.5v-0.5h1v3h-3z"></path>
</svg>
