<!-- Generated by IcoMoon.io -->
<svg version="1.1" xmlns="http://www.w3.org/2000/svg" width="24" height="24" viewBox="0 0 24 24">
<title>Camera-Add-32</title>
<path d="M14.764 17.223l3.75-1.5c0.143-0.056 0.236-0.195 0.236-0.348v-4.5c0-0.154-0.093-0.291-0.236-0.348l-3.75-1.5c-0.089-0.036-0.189-0.036-0.278 0l-3.75 1.5c-0.143 0.057-0.236 0.194-0.236 0.348v4.5c0 0.153 0.094 0.292 0.236 0.348l3.75 1.5c0.045 0.018 0.092 0.027 0.139 0.027s0.095-0.009 0.139-0.027zM11.25 15.121v-3.992l3.375-1.35 3.375 1.35v3.992l-3.375 1.351-3.375-1.351z"></path>
<path d="M3.859 7.61l-1.5 1.5c-0.146 0.146-0.146 0.384 0 0.53l1.5 1.5c0.074 0.074 0.17 0.11 0.266 0.11s0.192-0.037 0.266-0.11l1.5-1.5c0.146-0.146 0.146-0.384 0-0.53l-1.5-1.5c-0.147-0.147-0.384-0.147-0.531-0.001zM4.125 10.345l-0.97-0.97 0.97-0.97 0.97 0.97-0.97 0.97z"></path>
<path d="M2.625 3.75h3c0.207 0 0.375-0.168 0.375-0.375v-1.5c0-0.207-0.168-0.375-0.375-0.375h-3c-0.207 0-0.375 0.168-0.375 0.375v1.5c0 0.207 0.168 0.375 0.375 0.375zM3 2.25h2.25v0.75h-2.25v-0.75z"></path>
<path d="M16.875 4.5c0.207 0 0.375-0.168 0.375-0.375v-1.5c0-0.207-0.168-0.375-0.375-0.375h-4.5c-0.207 0-0.375 0.168-0.375 0.375v1.5c0 0.207 0.168 0.375 0.375 0.375h4.5zM12.75 3h3.75v0.75h-3.75v-0.75z"></path>
<path d="M23.625 5.25h-2.674l-0.704-4.928c-0.027-0.184-0.185-0.322-0.372-0.322h-10.5c-0.187 0-0.345 0.137-0.371 0.322l-0.704 4.928h-7.925c-0.207 0-0.375 0.168-0.375 0.375v16.5c0 0.207 0.168 0.375 0.375 0.375h15.75c0.207 0 0.375-0.168 0.375-0.375s-0.168-0.375-0.375-0.375h-15.375v-15.75h7.875c0.187 0 0.345-0.137 0.371-0.322l0.704-4.928h9.85l0.704 4.928c0.026 0.184 0.184 0.322 0.371 0.322h2.625v10.125c0 0.207 0.168 0.375 0.375 0.375s0.375-0.168 0.375-0.375v-10.5c0-0.207-0.168-0.375-0.375-0.375z"></path>
<path d="M23.625 21h-1.875v-1.875c0-0.207-0.168-0.375-0.375-0.375s-0.375 0.168-0.375 0.375v1.875h-1.875c-0.207 0-0.375 0.168-0.375 0.375s0.168 0.375 0.375 0.375h1.875v1.875c0 0.207 0.168 0.375 0.375 0.375s0.375-0.168 0.375-0.375v-1.875h1.875c0.207 0 0.375-0.168 0.375-0.375s-0.168-0.375-0.375-0.375z"></path>
<path d="M8.25 9.375v7.5c0 0.157 0.097 0.296 0.243 0.352l6 2.25c0.043 0.015 0.087 0.023 0.132 0.023s0.089-0.008 0.132-0.023l6-2.25c0.146-0.056 0.243-0.195 0.243-0.352v-7.5c0-0.156-0.097-0.296-0.243-0.351l-6-2.25c-0.085-0.032-0.178-0.032-0.264 0l-6 2.25c-0.146 0.055-0.243 0.195-0.243 0.351zM9 9.635l5.625-2.11 5.625 2.11v6.98l-5.625 2.11-5.625-2.11v-6.98z"></path>
</svg>
