<!-- Generated by IcoMoon.io -->
<svg version="1.1" xmlns="http://www.w3.org/2000/svg" width="18" height="18" viewBox="0 0 18 18">
<title>Camera-18</title>
<path d="M17.5 4h-2.609l-0.905-3.621c-0.056-0.223-0.257-0.379-0.486-0.379h-6c-0.229 0-0.429 0.156-0.485 0.379l-0.906 3.621h-5.609c-0.276 0-0.5 0.224-0.5 0.5v13c0 0.276 0.224 0.5 0.5 0.5h17c0.276 0 0.5-0.224 0.5-0.5v-13c0-0.276-0.224-0.5-0.5-0.5zM17 17h-16v-12h5.5c0.229 0 0.429-0.156 0.485-0.379l0.906-3.621h5.219l0.905 3.621c0.055 0.223 0.256 0.379 0.485 0.379h2.5v12z"></path>
<path d="M1.5 3h2c0.276 0 0.5-0.224 0.5-0.5s-0.224-0.5-0.5-0.5h-2c-0.276 0-0.5 0.224-0.5 0.5s0.224 0.5 0.5 0.5z"></path>
<path d="M9.5 3h2c0.276 0 0.5-0.224 0.5-0.5s-0.224-0.5-0.5-0.5h-2c-0.276 0-0.5 0.224-0.5 0.5s0.224 0.5 0.5 0.5z"></path>
<path d="M10.276 6.053l-4 2c-0.169 0.085-0.276 0.258-0.276 0.447v5c0 0.189 0.107 0.362 0.276 0.447l4 2c0.071 0.035 0.148 0.053 0.224 0.053s0.153-0.018 0.224-0.053l4-2c0.169-0.085 0.276-0.258 0.276-0.447v-5c0-0.189-0.107-0.362-0.276-0.447l-4-2c-0.141-0.071-0.307-0.071-0.448 0zM14 13.191l-3.5 1.75-3.5-1.75v-4.382l3.5-1.75 3.5 1.75v4.382z"></path>
<path d="M3.854 6.146c-0.195-0.195-0.512-0.195-0.707 0l-1 1c-0.195 0.195-0.195 0.512 0 0.707l1 1c0.097 0.098 0.225 0.147 0.353 0.147s0.256-0.049 0.354-0.146l1-1c0.195-0.195 0.195-0.512 0-0.707l-1-1.001zM3.5 7.793l-0.293-0.293 0.293-0.293 0.293 0.293-0.293 0.293z"></path>
</svg>
