<!-- Generated by IcoMoon.io -->
<svg version="1.1" xmlns="http://www.w3.org/2000/svg" width="43" height="36" viewBox="0 0 43 36">
<title>Channel-Secret-12</title>
<path d="M43.009 15.394l-7.2-14.4c-0.004-0.011-0.018-0.014-0.022-0.022-0.115-0.223-0.274-0.428-0.482-0.594-0.032-0.025-0.072-0.029-0.104-0.054-0.065-0.040-0.133-0.061-0.202-0.097-0.216-0.108-0.436-0.173-0.67-0.191-0.047-0.004-0.083-0.036-0.13-0.036h-21.6c-0.634 0-1.217 0.331-1.544 0.875l-10.8 18c-0.317 0.526-0.342 1.181-0.068 1.732l7.2 14.4c0.007 0.011 0.022 0.014 0.025 0.022 0.115 0.223 0.27 0.425 0.482 0.59 0.025 0.022 0.058 0.014 0.086 0.029 0.295 0.212 0.634 0.353 1.008 0.353 0.004 0 0.004 0 0.007 0 0 0 0 0 0 0v0h21.6c0.634 0 1.22-0.331 1.544-0.875l10.8-18c0.32-0.526 0.342-1.181 0.068-1.732zM13.619 3.6h16.898l-21.182 27.241-5.483-10.962 9.767-16.279zM29.581 32.4h-16.902l21.19-27.241 5.476 10.962-9.763 16.279z"></path>
</svg>
