<!-- Generated by IcoMoon.io -->
<svg version="1.1" xmlns="http://www.w3.org/2000/svg" width="29" height="32" viewBox="0 0 29 32">
<title>Channel-Private-12</title>
<path d="M28 13.333h-4v-6.667c0-0.355-0.141-0.693-0.389-0.944l-5.333-5.333c-0.251-0.248-0.589-0.389-0.944-0.389h-5.333c-0.355 0-0.693 0.141-0.944 0.389l-5.333 5.333c-0.248 0.251-0.389 0.589-0.389 0.944v6.667h-4c-0.736 0-1.333 0.597-1.333 1.333v16c0 0.736 0.597 1.333 1.333 1.333h26.667c0.736 0 1.333-0.597 1.333-1.333v-16c0-0.736-0.597-1.333-1.333-1.333zM8 7.219l4.552-4.552h4.229l4.552 4.552v6.115h-13.333v-6.115zM26.667 29.333h-24v-13.333h24v13.333z"></path>
<path d="M14.667 18.667c-0.736 0-1.333 0.597-1.333 1.333v5.333c0 0.736 0.597 1.333 1.333 1.333s1.333-0.597 1.333-1.333v-5.333c0-0.736-0.597-1.333-1.333-1.333z"></path>
</svg>
