<!-- Generated by IcoMoon.io -->
<svg version="1.1" xmlns="http://www.w3.org/2000/svg" width="19" height="18" viewBox="0 0 19 18">
<title>Channel-Create-18</title>
<path d="M18.952 2.328c-0.1-0.132-0.256-0.211-0.422-0.211h-2.021l0.413-1.443c0.046-0.16 0.015-0.331-0.086-0.464s-0.257-0.211-0.424-0.211h-14.824c-0.183 0-0.354 0.095-0.45 0.251s-0.106 0.352-0.023 0.515l1.929 3.859-3.024 10.582c-0.046 0.16-0.014 0.331 0.087 0.464 0.1 0.134 0.256 0.212 0.422 0.212h2.020l-0.412 1.442c-0.046 0.16-0.014 0.331 0.087 0.464 0.1 0.134 0.256 0.212 0.422 0.212h14.824c0.183 0 0.354-0.095 0.451-0.251 0.096-0.156 0.105-0.35 0.022-0.515l-1.929-3.859 3.023-10.583c0.046-0.16 0.015-0.331-0.086-0.464zM1.231 14.824l2.887-10.105c0.036-0.127 0.023-0.264-0.036-0.382l-1.638-3.277h13.265l-0.303 1.059h-8.525c-0.236 0-0.444 0.157-0.509 0.384l-3.521 12.322h-1.621zM15.105 3.176l-3.328 11.647h-7.824l3.328-11.647h7.824zM14.94 13.282c-0.036 0.128-0.023 0.264 0.035 0.382l1.639 3.277h-13.265l0.303-1.059h8.525c0.237 0 0.444-0.157 0.508-0.383l3.522-12.323h1.621l-2.887 10.105z"></path>
<path d="M7.941 9.529h0.911l-0.365 1.46c-0.071 0.284 0.102 0.571 0.385 0.642 0.042 0.011 0.086 0.016 0.128 0.016 0.237 0 0.453-0.16 0.512-0.401l0.43-1.716h1.175c0.292 0 0.529-0.237 0.529-0.529s-0.237-0.529-0.529-0.529h-0.911l0.365-1.46c0.071-0.284-0.102-0.571-0.385-0.642-0.286-0.074-0.572 0.102-0.642 0.385l-0.429 1.716h-1.175c-0.292 0-0.529 0.237-0.529 0.529s0.237 0.529 0.529 0.529z"></path>
</svg>
