<!-- Generated by IcoMoon.io -->
<svg version="1.1" xmlns="http://www.w3.org/2000/svg" width="36" height="36" viewBox="0 0 36 36">
<title>Chevron-Up-Circle-10</title>
<path d="M18 36c9.925 0 18-8.075 18-18s-8.075-18-18-18-18 8.075-18 18 8.075 18 18 18zM18 3.6c7.942 0 14.4 6.458 14.4 14.4s-6.458 14.4-14.4 14.4-14.4-6.458-14.4-14.4 6.458-14.4 14.4-14.4z"></path>
<path d="M7.592 20.927c0.612 0.767 1.75 0.9 2.531 0.281l7.877-6.3 7.877 6.3c0.781 0.619 1.908 0.486 2.531-0.281 0.619-0.781 0.493-1.908-0.281-2.534l-9-7.2c-0.331-0.263-0.731-0.392-1.127-0.392s-0.796 0.13-1.127 0.392l-9 7.2c-0.77 0.623-0.896 1.76-0.281 2.534z"></path>
</svg>
