<!-- Generated by IcoMoon.io -->
<svg version="1.1" xmlns="http://www.w3.org/2000/svg" width="29" height="32" viewBox="0 0 29 32">
<title>Comment-12</title>
<path d="M8 13.333h13.333v2.667h-13.333v-2.667z"></path>
<path d="M8 21.333h13.333v2.667h-13.333v-2.667z"></path>
<path d="M28 5.333h-7.448l-4.941-4.944c-0.52-0.52-1.365-0.52-1.885 0l-4.944 4.944h-7.448c-0.736 0-1.333 0.597-1.333 1.333v24c0 0.733 0.597 1.333 1.333 1.333h26.667c0.733 0 1.333-0.6 1.333-1.333v-24c0-0.736-0.6-1.333-1.333-1.333zM26.667 29.333h-24v-21.333h6.667c0.355 0 0.693-0.141 0.944-0.389l4.389-4.392 4.389 4.389c0.251 0.251 0.589 0.392 0.944 0.392h6.667v21.333z"></path>
</svg>
