<!-- Generated by IcoMoon.io -->
<svg version="1.1" xmlns="http://www.w3.org/2000/svg" width="32" height="32" viewBox="0 0 32 32">
<title>Company-24</title>
<path d="M4.667 13.333h6.667c0.368 0 0.667-0.299 0.667-0.667s-0.299-0.667-0.667-0.667h-6.667c-0.368 0-0.667 0.299-0.667 0.667s0.299 0.667 0.667 0.667z"></path>
<path d="M4.667 9.333h6.667c0.368 0 0.667-0.299 0.667-0.667s-0.299-0.667-0.667-0.667h-6.667c-0.368 0-0.667 0.299-0.667 0.667s0.299 0.667 0.667 0.667z"></path>
<path d="M4.667 5.333h6.667c0.368 0 0.667-0.299 0.667-0.667s-0.299-0.667-0.667-0.667h-6.667c-0.368 0-0.667 0.299-0.667 0.667s0.299 0.667 0.667 0.667z"></path>
<path d="M4.667 17.333h6.667c0.368 0 0.667-0.299 0.667-0.667s-0.299-0.667-0.667-0.667h-6.667c-0.368 0-0.667 0.299-0.667 0.667s0.299 0.667 0.667 0.667z"></path>
<path d="M4.667 21.333h6.667c0.368 0 0.667-0.299 0.667-0.667s-0.299-0.667-0.667-0.667h-6.667c-0.368 0-0.667 0.299-0.667 0.667s0.299 0.667 0.667 0.667z"></path>
<path d="M11.333 25.333c0.368 0 0.667-0.299 0.667-0.667s-0.299-0.667-0.667-0.667h-6.667c-0.368 0-0.667 0.299-0.667 0.667s0.299 0.667 0.667 0.667h6.667z"></path>
<path d="M22 18.667h-2.667c-0.368 0-0.667 0.299-0.667 0.667s0.299 0.667 0.667 0.667h2.667c0.368 0 0.667-0.299 0.667-0.667s-0.299-0.667-0.667-0.667z"></path>
<path d="M22 14.667h-2.667c-0.368 0-0.667 0.299-0.667 0.667s0.299 0.667 0.667 0.667h2.667c0.368 0 0.667-0.299 0.667-0.667s-0.299-0.667-0.667-0.667z"></path>
<path d="M22 22.667h-2.667c-0.368 0-0.667 0.299-0.667 0.667s0.299 0.667 0.667 0.667h2.667c0.368 0 0.667-0.299 0.667-0.667s-0.299-0.667-0.667-0.667z"></path>
<path d="M22 26.667h-2.667c-0.368 0-0.667 0.299-0.667 0.667s0.299 0.667 0.667 0.667h2.667c0.368 0 0.667-0.299 0.667-0.667s-0.299-0.667-0.667-0.667z"></path>
<path d="M31.495 21.353l-4.828-1.208v-7.479c0-0.252-0.143-0.483-0.368-0.596l-5.333-2.667c-0.188-0.093-0.409-0.093-0.596 0l-4.369 2.184v-10.921c0-0.368-0.299-0.667-0.667-0.667h-14.667c-0.368 0-0.667 0.299-0.667 0.667v30.667c0 0.368 0.299 0.667 0.667 0.667h30.667c0.368 0 0.667-0.299 0.667-0.667v-9.333c0-0.305-0.208-0.573-0.505-0.647zM1.333 1.333h13.333v29.333h-4v-2c0-0.367-0.3-0.667-0.667-0.667h-4c-0.367 0-0.667 0.3-0.667 0.667v2h-4v-29.333zM16 13.079l4.667-2.333 4.667 2.333v17.588h-9.333v-17.588zM30.667 30.667h-4v-9.145l4 1v8.145z"></path>
</svg>
