<!-- Generated by IcoMoon.io -->
<svg version="1.1" xmlns="http://www.w3.org/2000/svg" width="16" height="18" viewBox="0 0 16 18">
<title>Edit-18</title>
<path d="M0 17h16v1h-16v-1z"></path>
<path d="M0 16h3.5c0.133 0 0.26-0.053 0.354-0.146l12-12c0.195-0.195 0.195-0.512 0-0.707l-3-3c-0.194-0.195-0.512-0.195-0.707 0l-12 12c-0.094 0.093-0.147 0.22-0.147 0.353v3c0 0.001 0 0.002 0 0.002v0.498zM12.5 1.207l2.293 2.293-1.293 1.293-2.293-2.293 1.293-1.293zM1 12.707l9.5-9.5 2.293 2.293-9.5 9.5h-2.293v-2.293z"></path>
</svg>
