<!-- Generated by IcoMoon.io -->
<svg version="1.1" xmlns="http://www.w3.org/2000/svg" width="32" height="32" viewBox="0 0 32 32">
<title>Experience-1-24</title>
<path d="M22.155 6.933c0.533-0.079 1.003-0.267 1.409-0.565h0.949v6.965h-1.26v-5.461c-0.361 0.179-0.729 0.267-1.099 0.267v-1.205z"></path>
<path d="M31.333 0h-30.667c-0.368 0-0.667 0.299-0.667 0.667v30.667c0 0.368 0.299 0.667 0.667 0.667h30.667c0.368 0 0.667-0.299 0.667-0.667v-30.667c0-0.368-0.299-0.667-0.667-0.667zM30.667 30.667h-29.333v-4h29.333v4zM2.276 25.333l9.084-9.084 10.22 9.084h-19.304zM30.667 25.333h-7.080l-11.811-10.499c-0.263-0.236-0.665-0.223-0.915 0.027l-9.528 9.529v-23.057h29.333v24z"></path>
</svg>
