<!-- Generated by IcoMoon.io -->
<svg version="1.1" xmlns="http://www.w3.org/2000/svg" width="18" height="18" viewBox="0 0 18 18">
<title>Filter-18</title>
<path d="M17.5 0h-17c-0.276 0-0.5 0.224-0.5 0.5v3c0 0.121 0.044 0.238 0.124 0.329l6.876 7.859v5.812c0 0.185 0.102 0.354 0.264 0.44 0.074 0.040 0.155 0.060 0.236 0.060 0.097 0 0.194-0.028 0.277-0.084l3-2c0.139-0.093 0.223-0.249 0.223-0.416v-3.813l6.876-7.858c0.080-0.091 0.124-0.208 0.124-0.329v-3c0-0.276-0.224-0.5-0.5-0.5zM1 1h16v2h-16v-2zM10.124 11.171c-0.080 0.091-0.124 0.208-0.124 0.329v3.732l-2 1.333v-5.065c0-0.121-0.044-0.238-0.124-0.329l-6.274-7.171h14.796l-6.274 7.171z"></path>
</svg>
