<!-- Generated by IcoMoon.io -->
<svg version="1.1" xmlns="http://www.w3.org/2000/svg" width="32" height="32" viewBox="0 0 32 32">
<title>Flag-24</title>
<path d="M31.333 6.667h-8.667v-3.333c0-0.368-0.299-0.667-0.667-0.667h-18v-2c0-0.368-0.299-0.667-0.667-0.667h-2.667c-0.368 0-0.667 0.299-0.667 0.667v30.667c0 0.368 0.299 0.667 0.667 0.667h2.667c0.368 0 0.667-0.299 0.667-0.667v-8.667h13.333v3.333c0 0.124 0.041 0.232 0.1 0.331 0.015 0.025 0.028 0.044 0.044 0.067 0.072 0.092 0.156 0.172 0.265 0.217 0.001 0 0.001 0.001 0.001 0.001 0.083 0.033 0.171 0.051 0.256 0.051h13.333c0.368 0 0.667-0.299 0.667-0.667v-18.667c0-0.368-0.299-0.667-0.667-0.667zM2.667 30.667h-1.333v-29.333h1.333v29.333zM4 21.333v-17.333h17.333v17.333h-17.333zM20.391 22.667l-1.724 1.724v-1.724h1.724zM30.667 25.333h-11.057l2.861-2.861c0.061-0.061 0.111-0.135 0.144-0.216 0.033-0.080 0.052-0.168 0.052-0.256v-14h8v17.333z"></path>
</svg>
