<!-- Generated by IcoMoon.io -->
<svg version="1.1" xmlns="http://www.w3.org/2000/svg" width="18" height="18" viewBox="0 0 18 18">
<title>Follow-18</title>
<path d="M13.68 15.033l-5.632-2.166 2.744-1.96c0.13-0.094 0.208-0.246 0.208-0.407v-4c0-0.162-0.078-0.313-0.209-0.407l-3.5-2.5c-0.174-0.124-0.407-0.124-0.581 0l-3.5 2.5c-0.132 0.094-0.21 0.245-0.21 0.407v4c0 0.161 0.078 0.313 0.209 0.407l2.744 1.96-5.633 2.166c-0.193 0.074-0.32 0.26-0.32 0.467v2c0 0.276 0.224 0.5 0.5 0.5h13c0.276 0 0.5-0.224 0.5-0.5v-2c0-0.207-0.127-0.393-0.32-0.467zM4 6.757l3-2.143 3 2.143v3.486l-3 2.143-3-2.143v-3.486zM13 17h-12v-1.156l6-2.308 6 2.308v1.156z"></path>
<path d="M17.5 3h-2.5v-2.5c0-0.276-0.224-0.5-0.5-0.5s-0.5 0.224-0.5 0.5v2.5h-2.5c-0.276 0-0.5 0.224-0.5 0.5s0.224 0.5 0.5 0.5h2.5v2.5c0 0.276 0.224 0.5 0.5 0.5s0.5-0.224 0.5-0.5v-2.5h2.5c0.276 0 0.5-0.224 0.5-0.5s-0.224-0.5-0.5-0.5z"></path>
</svg>
