<!-- Generated by IcoMoon.io -->
<svg version="1.1" xmlns="http://www.w3.org/2000/svg" width="18" height="18" viewBox="0 0 18 18">
<title>Follow-Pending-18</title>
<path d="M13.68 15.033l-5.632-2.166 2.744-1.96c0.13-0.094 0.208-0.246 0.208-0.407v-4c0-0.162-0.078-0.313-0.209-0.407l-3.5-2.5c-0.174-0.124-0.407-0.124-0.581 0l-3.5 2.5c-0.132 0.094-0.21 0.245-0.21 0.407v4c0 0.161 0.078 0.313 0.209 0.407l2.744 1.96-5.633 2.166c-0.193 0.074-0.32 0.26-0.32 0.467v2c0 0.276 0.224 0.5 0.5 0.5h13c0.276 0 0.5-0.224 0.5-0.5v-2c0-0.207-0.127-0.393-0.32-0.467zM4 6.757l3-2.143 3 2.143v3.486l-3 2.143-3-2.143v-3.486zM13 17h-12v-1.156l6-2.308 6 2.308v1.156z"></path>
<path d="M17.658 1.026l-3-1c-0.104-0.034-0.213-0.034-0.316 0l-3 1c-0.204 0.068-0.342 0.259-0.342 0.474v4c0 0.215 0.138 0.406 0.342 0.474l3 1c0.052 0.017 0.104 0.026 0.158 0.026s0.106-0.009 0.158-0.026l3-1c0.204-0.068 0.342-0.259 0.342-0.474v-4c0-0.215-0.138-0.406-0.342-0.474zM17 5.14l-2.5 0.833-2.5-0.833v-3.28l2.5-0.833 2.5 0.833v3.28z"></path>
<path d="M14 2v1.5c0 0.133 0.053 0.26 0.146 0.354l1 1c0.098 0.097 0.226 0.146 0.354 0.146s0.256-0.049 0.354-0.146c0.195-0.195 0.195-0.512 0-0.707l-0.854-0.854v-1.293c0-0.276-0.224-0.5-0.5-0.5s-0.5 0.224-0.5 0.5z"></path>
</svg>
