<!-- Generated by IcoMoon.io -->
<svg version="1.1" xmlns="http://www.w3.org/2000/svg" width="44" height="36" viewBox="0 0 44 36">
<title>Gem-18</title>
<path d="M43.736 11.571c0-0.329-0.123-0.633-0.329-0.859l-4.999-10.003c-0.221-0.435-0.666-0.71-1.152-0.71h-30.857c-0.486 0-0.931 0.275-1.149 0.71l-5.143 10.286c-0.005 0.010-0.003 0.021-0.008 0.031-0.003 0.008-0.013 0.010-0.015 0.018-0.023 0.051-0.005 0.105-0.021 0.157-0.051 0.165-0.085 0.329-0.067 0.501 0.008 0.085 0.049 0.157 0.075 0.239 0.031 0.103 0.036 0.213 0.095 0.306 0.018 0.036 0.062 0.051 0.085 0.085 0.021 0.028 0.021 0.067 0.044 0.093l20.571 23.143c0.044 0.049 0.103 0.069 0.152 0.111s0.090 0.072 0.144 0.108c0.203 0.123 0.424 0.213 0.666 0.213s0.463-0.090 0.663-0.213c0.054-0.036 0.098-0.067 0.144-0.108 0.049-0.041 0.108-0.062 0.152-0.111l20.453-23.007c0.293-0.237 0.496-0.584 0.496-0.99zM15.898 12.857h11.862l-5.932 17.792-5.93-17.792zM16.685 10.286l5.143-6.858 5.143 6.858h-10.286zM40.319 10.286h-8.205l4.924-6.565 3.281 6.565zM34.685 2.571l-5.143 6.858-5.143-6.858h10.286zM19.256 2.571l-5.143 6.858-5.143-6.858h10.286zM6.618 3.721l4.924 6.565h-8.205l3.281-6.565zM13.188 12.857l5.441 16.321-14.511-16.321h9.069zM25.029 29.178l5.439-16.321h9.067l-14.505 16.321z"></path>
</svg>
