<!-- Generated by IcoMoon.io -->
<svg version="1.1" xmlns="http://www.w3.org/2000/svg" width="32" height="32" viewBox="0 0 32 32">
<title>Gem-24</title>
<path d="M32 10.438c0-0.192-0.078-0.364-0.203-0.491l-5.477-9.587c-0.004-0.007-0.012-0.010-0.018-0.017-0.004-0.007-0.003-0.015-0.007-0.021-0.039-0.060-0.099-0.096-0.153-0.14-0.031-0.026-0.053-0.061-0.088-0.082-0.103-0.057-0.218-0.090-0.339-0.090h-19.465c-0.121 0-0.235 0.033-0.338 0.090-0.035 0.019-0.054 0.054-0.085 0.078-0.057 0.044-0.117 0.083-0.159 0.145-0.004 0.006-0.003 0.015-0.007 0.022s-0.013 0.008-0.015 0.015l-5.562 9.733c-0.004 0.006-0.003 0.012-0.004 0.018s-0.010 0.007-0.012 0.012c-0.019 0.039-0.012 0.082-0.024 0.122-0.022 0.075-0.047 0.146-0.044 0.221 0.001 0.053 0.026 0.097 0.040 0.147 0.015 0.058 0.015 0.118 0.046 0.171 0.007 0.011 0.021 0.017 0.028 0.028 0.007 0.010 0.006 0.025 0.012 0.035l15.294 20.856c0.007 0.011 0.021 0.015 0.029 0.025 0.053 0.064 0.115 0.115 0.186 0.157 0.022 0.012 0.042 0.025 0.065 0.033 0.088 0.040 0.181 0.070 0.281 0.070s0.193-0.029 0.281-0.068c0.024-0.010 0.043-0.022 0.065-0.033 0.071-0.042 0.133-0.093 0.186-0.157 0.008-0.010 0.021-0.014 0.029-0.025l15.218-20.753c0.143-0.128 0.238-0.309 0.238-0.514zM11.326 11.134h9.314l-4.658 17.463-4.656-17.463zM11.618 9.743l4.364-7.636 4.363 7.636h-8.727zM30.080 9.743h-7.48l3.206-7.48 4.274 7.48zM24.661 1.401l-3.208 7.48-4.273-7.48h7.48zM14.784 1.401l-4.274 7.48-3.206-7.48h7.48zM6.161 2.263l3.206 7.48h-7.48l4.274-7.48zM9.887 11.134l4.473 16.772-12.299-16.772h7.827zM17.605 27.906l4.474-16.772h7.827l-12.301 16.772z"></path>
</svg>
