<!-- Generated by IcoMoon.io -->
<svg version="1.1" xmlns="http://www.w3.org/2000/svg" width="32" height="32" viewBox="0 0 32 32">
<title>Gender-Other-24</title>
<path d="M31.805 14.861l-6.667-6.667c-0.125-0.124-0.295-0.195-0.472-0.195h-9.333c-0.177 0-0.347 0.071-0.472 0.195l-2.861 2.863-0.195-0.196-3.529-3.528 3.528-3.528c0.26-0.26 0.26-0.683 0-0.943s-0.683-0.26-0.943 0l-3.528 3.528-5.057-5.057h7.057c0.368 0 0.667-0.299 0.667-0.667s-0.299-0.667-0.667-0.667h-8.667c-0.368 0-0.667 0.299-0.667 0.667v8c0 0.368 0.299 0.667 0.667 0.667s0.667-0.299 0.667-0.667v-6.391l5.057 5.057-3.529 3.528c-0.26 0.26-0.26 0.683 0 0.943 0.131 0.131 0.301 0.196 0.472 0.196s0.341-0.065 0.472-0.195l3.528-3.529 3.724 3.724-2.861 2.861c-0.125 0.125-0.196 0.295-0.196 0.472v9.333c0 0.177 0.071 0.347 0.195 0.472l6.667 6.667c0.125 0.124 0.295 0.195 0.472 0.195h9.333c0.177 0 0.347-0.071 0.472-0.195l6.667-6.667c0.124-0.125 0.195-0.295 0.195-0.472v-9.333c0-0.177-0.071-0.347-0.195-0.472zM30.667 24.391l-6.276 6.276h-8.781l-6.276-6.276v-8.781l6.276-6.276h8.781l6.276 6.276v8.781z"></path>
</svg>
