<!-- Generated by IcoMoon.io -->
<svg version="1.1" xmlns="http://www.w3.org/2000/svg" width="18" height="18" viewBox="0 0 18 18">
<title>Gender-Female-18</title>
<path d="M17.854 4.146l-4-4c-0.094-0.093-0.221-0.146-0.354-0.146h-4c-0.133 0-0.26 0.053-0.354 0.146l-4 4c-0.093 0.094-0.146 0.221-0.146 0.354v4c0 0.133 0.053 0.26 0.146 0.354l1.647 1.646-3.293 3.293-2.646-2.646c-0.195-0.195-0.512-0.195-0.707 0s-0.195 0.512 0 0.707l2.646 2.646-2.646 2.646c-0.195 0.195-0.195 0.512 0 0.707 0.097 0.098 0.225 0.147 0.353 0.147s0.256-0.049 0.354-0.146l2.646-2.647 2.646 2.646c0.098 0.098 0.226 0.147 0.354 0.147s0.256-0.049 0.354-0.146c0.195-0.195 0.195-0.512 0-0.707l-2.647-2.647 3.293-3.293 1.646 1.646c0.094 0.094 0.221 0.147 0.354 0.147h4c0.133 0 0.26-0.053 0.354-0.146l4-4c0.093-0.094 0.146-0.221 0.146-0.354v-4c0-0.133-0.053-0.26-0.146-0.354zM17 8.293l-3.707 3.707h-3.586l-3.707-3.707v-3.586l3.707-3.707h3.586l3.707 3.707v3.586z"></path>
</svg>
