<!-- Generated by IcoMoon.io -->
<svg version="1.1" xmlns="http://www.w3.org/2000/svg" width="18" height="18" viewBox="0 0 18 18">
<title>Gender-Male-18</title>
<path d="M17.5 0h-6c-0.275 0-0.5 0.224-0.5 0.5s0.225 0.5 0.5 0.5h4.793l-5.793 5.793-1.646-1.647c-0.094-0.093-0.221-0.146-0.354-0.146h-4c-0.133 0-0.26 0.053-0.354 0.146l-4 4c-0.093 0.094-0.146 0.221-0.146 0.354v4c0 0.133 0.053 0.26 0.146 0.354l4 4c0.094 0.093 0.221 0.146 0.354 0.146h4c0.133 0 0.26-0.053 0.354-0.146l4-4c0.093-0.094 0.146-0.221 0.146-0.354v-4c0-0.133-0.053-0.26-0.146-0.354l-1.647-1.646 5.793-5.793v4.793c0 0.276 0.225 0.5 0.5 0.5s0.5-0.224 0.5-0.5v-6c0-0.276-0.224-0.5-0.5-0.5zM12 13.293l-3.707 3.707h-3.586l-3.707-3.707v-3.586l3.707-3.707h3.586l3.707 3.707v3.586z"></path>
</svg>
