<!-- Generated by IcoMoon.io -->
<svg version="1.1" xmlns="http://www.w3.org/2000/svg" width="20" height="18" viewBox="0 0 20 18">
<title>Goodwall-18</title>
<path d="M19.612 15.208l-4.668-8.083c-0.1-0.174-0.286-0.281-0.487-0.281s-0.387 0.107-0.487 0.281l-2.411 4.174c-0.156 0.269-0.064 0.613 0.206 0.768 0.089 0.052 0.186 0.075 0.281 0.075 0.194 0 0.384-0.101 0.487-0.281l1.924-3.33 4.178 7.239c0.192 0.332 0.241 0.63 0.134 0.814s-0.386 0.29-0.77 0.29h-15.75c-0.384 0-0.665-0.107-0.772-0.291s-0.058-0.483 0.134-0.814l7.875-13.641c0.385-0.667 0.892-0.663 1.276 0l1.436 2.486c0.154 0.268 0.496 0.361 0.768 0.206 0.269-0.155 0.361-0.499 0.206-0.768l-1.434-2.486c-0.796-1.38-2.428-1.38-3.224 0l-7.875 13.641c-0.398 0.69-0.447 1.397-0.134 1.939 0.313 0.543 0.948 0.854 1.745 0.854h15.75c0.795 0 1.432-0.311 1.746-0.854s0.264-1.249-0.134-1.938z"></path>
</svg>
