<!-- Generated by IcoMoon.io -->
<svg version="1.1" xmlns="http://www.w3.org/2000/svg" width="43" height="36" viewBox="0 0 43 36">
<title>Heart-Filled-40</title>
<path d="M42.386 7.796l-7.636-7.636c-0.103-0.101-0.241-0.159-0.386-0.159h-5.455c-0.145 0-0.284 0.058-0.386 0.159l-7.25 7.251-7.25-7.25c-0.103-0.103-0.241-0.16-0.386-0.16h-5.455c-0.145 0-0.284 0.058-0.386 0.159l-7.636 7.636c-0.101 0.103-0.159 0.241-0.159 0.386v6.545c0 0.145 0.058 0.284 0.159 0.386l20.727 20.727c0.107 0.106 0.247 0.159 0.386 0.159s0.279-0.053 0.386-0.159l20.727-20.727c0.101-0.103 0.159-0.241 0.159-0.386v-6.545c0-0.145-0.058-0.284-0.159-0.386z"></path>
</svg>
