<!-- Generated by IcoMoon.io -->
<svg version="1.1" xmlns="http://www.w3.org/2000/svg" width="44" height="36" viewBox="0 0 44 36">
<title>Heart-Filled-18</title>
<path d="M43.339 8.090l-7.714-7.714c-0.242-0.239-0.568-0.375-0.91-0.375h-5.143c-0.342 0-0.669 0.136-0.91 0.375l-6.804 6.807-6.804-6.807c-0.242-0.239-0.568-0.375-0.91-0.375h-5.143c-0.342 0-0.669 0.136-0.91 0.375l-7.714 7.714c-0.239 0.242-0.375 0.568-0.375 0.91v5.143c0 0.342 0.136 0.669 0.375 0.91l20.571 20.571c0.252 0.249 0.581 0.375 0.91 0.375s0.658-0.126 0.91-0.375l20.571-20.571c0.239-0.242 0.375-0.568 0.375-0.91v-5.143c0-0.342-0.136-0.669-0.375-0.91z"></path>
</svg>
