<!-- Generated by IcoMoon.io -->
<svg version="1.1" xmlns="http://www.w3.org/2000/svg" width="17" height="18" viewBox="0 0 17 18">
<title>Help-Hexagon-18</title>
<path d="M8.5 18c-0.033 0.007-0.071 0.011-0.11 0.011s-0.077-0.004-0.114-0.012l0.004 0.001-8-4c-0.168-0.086-0.282-0.258-0.282-0.456 0-0.015 0.001-0.031 0.002-0.046l-0 0.002v-9c0.002-0.196 0.114-0.365 0.277-0.449l0.003-0.001 8-4c0.064-0.033 0.14-0.052 0.22-0.052s0.156 0.019 0.223 0.053l-0.003-0.001 8 4c0.166 0.085 0.278 0.254 0.28 0.45v9c-0.002 0.196-0.114 0.365-0.277 0.449l-0.003 0.001-8 4c-0.064 0.031-0.14 0.049-0.22 0.050h-0zM1 13.19l7.5 3.75 7.5-3.75v-8.38l-7.5-3.75-7.5 3.75z"></path>
<path d="M8.5 11.5c-0.276 0-0.5-0.224-0.5-0.5v0-1.5c0.002-0.196 0.114-0.365 0.277-0.449l0.003-0.001 1.72-0.86v-2.38l-1.5-0.75-1.5 0.75v1.19c0 0.276-0.224 0.5-0.5 0.5s-0.5-0.224-0.5-0.5v0-1.5c0.002-0.196 0.114-0.365 0.277-0.449l0.003-0.001 2-1c0.064-0.033 0.14-0.052 0.22-0.052s0.156 0.019 0.223 0.053l-0.003-0.001 2 1c0.166 0.085 0.278 0.254 0.28 0.45v3c-0.002 0.196-0.114 0.365-0.277 0.449l-0.003 0.001-1.72 0.86v1.19c0 0.276-0.224 0.5-0.5 0.5v0z"></path>
<path d="M9 13.5c0 0.276-0.224 0.5-0.5 0.5s-0.5-0.224-0.5-0.5c0-0.276 0.224-0.5 0.5-0.5s0.5 0.224 0.5 0.5z"></path>
</svg>
