<!-- Generated by IcoMoon.io -->
<svg version="1.1" xmlns="http://www.w3.org/2000/svg" width="17" height="18" viewBox="0 0 17 18">
<title>House-18</title>
<path d="M16.829 7.124l-8-7c-0.188-0.165-0.47-0.165-0.658 0l-8 7c-0.109 0.095-0.171 0.232-0.171 0.376v10c0 0.276 0.224 0.5 0.5 0.5h16c0.276 0 0.5-0.224 0.5-0.5v-10c0-0.144-0.062-0.281-0.171-0.376zM8.5 1.165l6.669 5.835h-13.338l6.669-5.835zM7 17v-4h3v4h-3zM16 17h-5v-4.5c0-0.276-0.224-0.5-0.5-0.5h-4c-0.276 0-0.5 0.224-0.5 0.5v4.5h-5v-9h15v9z"></path>
</svg>
