<!-- Generated by IcoMoon.io -->
<svg version="1.1" xmlns="http://www.w3.org/2000/svg" width="17" height="18" viewBox="0 0 17 18">
<title>Invite-18</title>
<path d="M8.146 8.854c0.098 0.097 0.226 0.146 0.354 0.146s0.256-0.049 0.354-0.146l3-3c0.093-0.094 0.146-0.221 0.146-0.354v-1c0-0.133-0.053-0.26-0.146-0.354l-1-1c-0.094-0.093-0.221-0.146-0.354-0.146h-1c-0.133 0-0.26 0.053-0.354 0.146l-0.646 0.647-0.646-0.647c-0.094-0.093-0.221-0.146-0.354-0.146h-1c-0.133 0-0.26 0.053-0.354 0.146l-1 1c-0.093 0.094-0.146 0.221-0.146 0.354v1c0 0.133 0.053 0.26 0.146 0.354l3 3zM6 4.707l0.707-0.707h0.586l0.854 0.854c0.195 0.195 0.512 0.195 0.707 0l0.853-0.854h0.586l0.707 0.707v0.586l-2.5 2.5-2.5-2.5v-0.586z"></path>
<path d="M16.931 7.263c-0.011-0.021-0.022-0.038-0.037-0.056-0.015-0.020-0.022-0.042-0.040-0.061l-1.854-1.853v-4.793c0-0.276-0.224-0.5-0.5-0.5h-12c-0.276 0-0.5 0.224-0.5 0.5v4.793l-1.854 1.853c-0.018 0.018-0.025 0.041-0.040 0.061-0.014 0.019-0.026 0.036-0.037 0.056-0.041 0.075-0.069 0.154-0.069 0.237v10c0 0.276 0.224 0.5 0.5 0.5h16c0.276 0 0.5-0.224 0.5-0.5v-10c0-0.083-0.028-0.162-0.069-0.237zM1 8.567l4.719 3.933-4.719 3.933v-7.866zM6.681 13h3.639l4.8 4h-13.239l4.8-4zM11.281 12.5l4.719-3.933v7.865l-4.719-3.932zM15.759 7.466l-0.759 0.633v-1.392l0.759 0.759zM3 1h11v7.933l-3.681 3.067h-3.638l-3.681-3.068v-7.932zM2 8.099l-0.759-0.633 0.759-0.759v1.392z"></path>
</svg>
