<!-- Generated by IcoMoon.io -->
<svg version="1.1" xmlns="http://www.w3.org/2000/svg" width="15" height="18" viewBox="0 0 15 18">
<title>Lightning-18</title>
<path d="M14.957 6.298c-0.080-0.181-0.259-0.298-0.457-0.298h-4.492l0.984-5.411c0.040-0.219-0.070-0.439-0.271-0.538s-0.441-0.053-0.591 0.113l-10 11c-0.133 0.146-0.167 0.357-0.087 0.538s0.259 0.298 0.457 0.298h4.492l-0.983 5.41c-0.040 0.22 0.070 0.439 0.27 0.538 0.070 0.034 0.146 0.052 0.221 0.052 0.138 0 0.273-0.057 0.37-0.164l10-11c0.133-0.146 0.167-0.357 0.087-0.538zM5.304 15.872l0.778-4.282c0.027-0.146-0.013-0.297-0.108-0.41-0.094-0.116-0.235-0.18-0.383-0.18h-3.961l8.065-8.872-0.778 4.283c-0.026 0.146 0.013 0.296 0.108 0.409s0.236 0.18 0.384 0.18h3.961l-8.066 8.872z"></path>
</svg>
