<!-- Generated by IcoMoon.io -->
<svg version="1.1" xmlns="http://www.w3.org/2000/svg" width="18" height="18" viewBox="0 0 18 18">
<title>Message-18</title>
<path d="M4 4h10v1h-10v-1z"></path>
<path d="M4 7h10v1h-10v-1z"></path>
<path d="M4 10h10v1h-10v-1z"></path>
<path d="M17.5 0h-17c-0.276 0-0.5 0.224-0.5 0.5v14c0 0.276 0.224 0.5 0.5 0.5h5.5v2.5c0 0.202 0.122 0.385 0.309 0.462 0.062 0.025 0.127 0.038 0.191 0.038 0.13 0 0.258-0.051 0.354-0.146l2.853-2.854h7.793c0.276 0 0.5-0.224 0.5-0.5v-14c0-0.276-0.224-0.5-0.5-0.5zM17 14h-7.5c-0.133 0-0.26 0.053-0.354 0.146l-2.146 2.147v-1.793c0-0.276-0.224-0.5-0.5-0.5h-5.5v-13h16v13z"></path>
</svg>
