<!-- Generated by IcoMoon.io -->
<svg version="1.1" xmlns="http://www.w3.org/2000/svg" width="17" height="18" viewBox="0 0 17 18">
<title>Message-Plus-18</title>
<path d="M16.5 0h-16c-0.276 0-0.5 0.224-0.5 0.5v14c0 0.276 0.224 0.5 0.5 0.5h4.5v2.5c0 0.195 0.114 0.373 0.291 0.454 0.067 0.031 0.138 0.046 0.209 0.046 0.117 0 0.233-0.041 0.325-0.12l3.36-2.88h7.315c0.276 0 0.5-0.224 0.5-0.5v-14c0-0.276-0.224-0.5-0.5-0.5zM16 14h-7c-0.119 0-0.235 0.043-0.325 0.12l-2.675 2.293v-1.913c0-0.276-0.224-0.5-0.5-0.5h-4.5v-13h15v13z"></path>
<path d="M5.5 8h2.5v2.5c0 0.276 0.224 0.5 0.5 0.5s0.5-0.224 0.5-0.5v-2.5h2.5c0.276 0 0.5-0.224 0.5-0.5s-0.224-0.5-0.5-0.5h-2.5v-2.5c0-0.276-0.224-0.5-0.5-0.5s-0.5 0.224-0.5 0.5v2.5h-2.5c-0.276 0-0.5 0.224-0.5 0.5s0.224 0.5 0.5 0.5z"></path>
</svg>
