<!-- Generated by IcoMoon.io -->
<svg version="1.1" xmlns="http://www.w3.org/2000/svg" width="18" height="18" viewBox="0 0 18 18">
<title>Name-Last-18</title>
<path d="M7.947 12.276c-0.048-0.097-0.127-0.175-0.224-0.224l-1.105-0.552 1.105-0.553c0.17-0.085 0.277-0.258 0.277-0.447v-3c0-0.189-0.107-0.362-0.276-0.447l-2-1c-0.141-0.070-0.307-0.070-0.447 0l-2 1c-0.17 0.085-0.277 0.258-0.277 0.447v3c0 0.189 0.107 0.362 0.276 0.447l1.106 0.553-1.105 0.553c-0.097 0.049-0.175 0.127-0.224 0.224l-1 2c-0.078 0.155-0.069 0.339 0.022 0.486s0.252 0.237 0.425 0.237h6c0.173 0 0.334-0.090 0.425-0.237s0.1-0.331 0.022-0.486l-1-2.001zM4 7.809l1.5-0.75 1.5 0.75v2.382l-1.5 0.75-1.5-0.75v-2.382zM3.309 14l0.563-1.127 1.628-0.814 1.627 0.814 0.564 1.127h-4.382z"></path>
<path d="M17.5 3h-6.5v-2.5c0-0.276-0.224-0.5-0.5-0.5h-3c-0.276 0-0.5 0.224-0.5 0.5v2.5h-6.5c-0.276 0-0.5 0.224-0.5 0.5v14c0 0.276 0.224 0.5 0.5 0.5h17c0.276 0 0.5-0.224 0.5-0.5v-14c0-0.276-0.224-0.5-0.5-0.5zM8 1h2v2h-2v-2zM17 17h-16v-13h16v13z"></path>
<path d="M14.5 14h-4c-0.276 0-0.5 0.224-0.5 0.5s0.224 0.5 0.5 0.5h4c0.276 0 0.5-0.224 0.5-0.5s-0.224-0.5-0.5-0.5z"></path>
<path d="M10.5 11c-0.276 0-0.5 0.224-0.5 0.5s0.224 0.5 0.5 0.5h4c0.276 0 0.5-0.224 0.5-0.5s-0.224-0.5-0.5-0.5h-4z"></path>
<path d="M15 6.5c0 0.276-0.224 0.5-0.5 0.5s-0.5-0.224-0.5-0.5c0-0.276 0.224-0.5 0.5-0.5s0.5 0.224 0.5 0.5z"></path>
<path d="M13 6.5c0 0.276-0.224 0.5-0.5 0.5s-0.5-0.224-0.5-0.5c0-0.276 0.224-0.5 0.5-0.5s0.5 0.224 0.5 0.5z"></path>
<path d="M11 6.5c0 0.276-0.224 0.5-0.5 0.5s-0.5-0.224-0.5-0.5c0-0.276 0.224-0.5 0.5-0.5s0.5 0.224 0.5 0.5z"></path>
</svg>
