<!-- Generated by IcoMoon.io -->
<svg version="1.1" xmlns="http://www.w3.org/2000/svg" width="29" height="32" viewBox="0 0 29 32">
<title>Person-12</title>
<path d="M28.496 24.096l-10.981-4.392 5.891-3.928c0.371-0.248 0.595-0.664 0.595-1.109v-8c0-0.445-0.224-0.861-0.595-1.109l-8-5.333c-0.448-0.299-1.032-0.299-1.48 0l-8 5.333c-0.371 0.248-0.592 0.664-0.592 1.109v8c0 0.445 0.221 0.861 0.595 1.109l5.891 3.928-10.981 4.392c-0.504 0.2-0.837 0.693-0.837 1.237v5.333c0 0.733 0.597 1.333 1.333 1.333h26.667c0.733 0 1.333-0.6 1.333-1.333v-5.333c0-0.544-0.331-1.037-0.837-1.237zM8 7.381l6.667-4.445 6.667 4.445v6.573l-6.667 4.44-6.667-4.443v-6.571zM26.667 29.333h-24v-3.096l12-4.803 12 4.803v3.096z"></path>
</svg>
