<!-- Generated by IcoMoon.io -->
<svg version="1.1" xmlns="http://www.w3.org/2000/svg" width="31" height="32" viewBox="0 0 31 32">
<title>Person-24</title>
<path d="M30.276 24.060l-13.247-6.021 5.217-2.087c0.255-0.101 0.42-0.345 0.42-0.619v-12c0-0.273-0.165-0.517-0.419-0.619l-6.667-2.667c-0.159-0.064-0.336-0.064-0.495 0l-6.667 2.667c-0.253 0.101-0.42 0.345-0.42 0.619v12c0 0.273 0.167 0.517 0.419 0.619l5.217 2.087-13.247 6.021c-0.236 0.108-0.389 0.345-0.389 0.607v6.667c0 0.368 0.299 0.667 0.667 0.667h29.333c0.368 0 0.667-0.299 0.667-0.667v-6.667c0-0.261-0.152-0.499-0.391-0.607zM9.333 3.784l6-2.4 6 2.4v11.097l-6 2.4-6-2.4v-11.097zM29.333 30.667h-28v-5.571l14-6.364 14 6.364v5.571z"></path>
</svg>
