<!-- Generated by IcoMoon.io -->
<svg version="1.1" xmlns="http://www.w3.org/2000/svg" width="13" height="18" viewBox="0 0 13 18">
<title>Pin-18</title>
<path d="M6.5 18c-0.195 0-0.372-0.113-0.454-0.29l-6-13c-0.077-0.168-0.056-0.363 0.054-0.51l3-4c0.094-0.126 0.243-0.2 0.4-0.2h6c0.157 0 0.306 0.074 0.4 0.2l3 4c0.11 0.147 0.131 0.342 0.054 0.509l-6 13c-0.082 0.178-0.259 0.291-0.454 0.291zM1.079 4.562l5.421 11.745 5.421-11.745-2.671-3.562h-5.5l-2.671 3.562z"></path>
<path d="M6.5 7c-0.053 0-0.107-0.009-0.158-0.026l-1.5-0.5c-0.204-0.068-0.342-0.259-0.342-0.474v-2c0-0.215 0.138-0.406 0.342-0.474l1.5-0.5c0.103-0.034 0.214-0.034 0.316 0l1.5 0.5c0.204 0.068 0.342 0.259 0.342 0.474v2c0 0.215-0.138 0.406-0.342 0.474l-1.5 0.5c-0.051 0.017-0.105 0.026-0.158 0.026zM5.5 5.64l1 0.333 1-0.333v-1.28l-1-0.333-1 0.333v1.28z"></path>
</svg>
