<!-- Generated by IcoMoon.io -->
<svg version="1.1" xmlns="http://www.w3.org/2000/svg" width="25" height="32" viewBox="0 0 25 32">
<title>Pin-24</title>
<path d="M25.221 8.297l-5.333-8c-0.124-0.187-0.332-0.297-0.555-0.297h-13.333c-0.223 0-0.431 0.111-0.555 0.297l-5.333 8c-0.136 0.204-0.149 0.465-0.035 0.681l12 22.667c0.116 0.217 0.343 0.355 0.589 0.355s0.473-0.137 0.589-0.355l12-22.667c0.113-0.216 0.101-0.479-0.035-0.681zM12.667 29.909l-11.224-21.204 4.915-7.372h12.62l4.916 7.372-11.227 21.204z"></path>
<path d="M13.036 4.112c-0.224-0.149-0.516-0.149-0.74 0l-4 2.667c-0.185 0.124-0.296 0.332-0.296 0.555v4c0 0.223 0.111 0.431 0.297 0.555l4 2.667c0.112 0.075 0.24 0.112 0.369 0.112s0.257-0.037 0.369-0.112l4-2.667c0.187-0.124 0.297-0.332 0.297-0.555v-4c0-0.223-0.111-0.431-0.297-0.555l-4-2.667zM16 10.976l-3.333 2.223-3.333-2.223v-3.285l3.333-2.223 3.333 2.223v3.285z"></path>
</svg>
