<!-- Generated by IcoMoon.io -->
<svg version="1.1" xmlns="http://www.w3.org/2000/svg" width="24" height="32" viewBox="0 0 24 32">
<title>Pin-12</title>
<path d="M12 5.333c-0.736 0-1.333 0.597-1.333 1.333v5.333c0 0.736 0.597 1.333 1.333 1.333s1.333-0.597 1.333-1.333v-5.333c0-0.736-0.597-1.333-1.333-1.333z"></path>
<path d="M23.776 8.595l-5.333-8c-0.248-0.373-0.664-0.595-1.109-0.595h-10.667c-0.445 0-0.861 0.221-1.109 0.595l-5.333 8c-0.267 0.397-0.296 0.907-0.083 1.336l10.667 21.333c0.227 0.451 0.688 0.736 1.192 0.736s0.965-0.285 1.192-0.736l10.667-21.333c0.213-0.429 0.184-0.939-0.083-1.336zM12 27.685l-9.128-18.256 4.509-6.763h9.24l4.507 6.763-9.128 18.256z"></path>
</svg>
