<!-- Generated by IcoMoon.io -->
<svg version="1.1" xmlns="http://www.w3.org/2000/svg" width="32" height="32" viewBox="0 0 32 32">
<title>Search-12</title>
<path d="M31.611 5.723l-5.333-5.333c-0.251-0.248-0.589-0.389-0.944-0.389h-13.333c-0.355 0-0.693 0.141-0.944 0.389l-5.333 5.333c-0.248 0.251-0.389 0.589-0.389 0.944v13.333c0 0.355 0.141 0.693 0.389 0.944l1.725 1.723-7.056 7.056c-0.52 0.52-0.52 1.365 0 1.885 0.259 0.261 0.6 0.392 0.941 0.392s0.683-0.131 0.944-0.389l7.056-7.059 1.723 1.723c0.251 0.251 0.589 0.392 0.944 0.392h13.333c0.355 0 0.693-0.141 0.944-0.389l5.333-5.333c0.248-0.251 0.389-0.589 0.389-0.944v-13.333c0-0.355-0.141-0.693-0.389-0.944zM29.333 19.448l-4.552 4.552h-12.229l-4.552-4.552v-12.229l4.552-4.552h12.229l4.552 4.552v12.229z"></path>
</svg>
