<!-- Generated by IcoMoon.io -->
<svg version="1.1" xmlns="http://www.w3.org/2000/svg" width="29" height="32" viewBox="0 0 29 32">
<title>Settings-Sliders-12</title>
<path d="M5.333 6.115v-4.781c0-0.736-0.597-1.333-1.333-1.333s-1.333 0.597-1.333 1.333v4.781l-2.277 2.275c-0.52 0.52-0.52 1.365 0 1.885l2.277 2.277v18.115c0 0.733 0.597 1.333 1.333 1.333s1.333-0.6 1.333-1.333v-18.115l2.277-2.277c0.52-0.52 0.52-1.365 0-1.885l-2.277-2.275zM4 10.115l-0.781-0.781 0.781-0.781 0.781 0.781-0.781 0.781z"></path>
<path d="M16 19.448v-18.115c0-0.736-0.597-1.333-1.333-1.333s-1.333 0.597-1.333 1.333v18.115l-2.277 2.275c-0.52 0.52-0.52 1.365 0 1.885l2.277 2.277v4.781c0 0.733 0.597 1.333 1.333 1.333s1.333-0.6 1.333-1.333v-4.781l2.277-2.277c0.52-0.52 0.52-1.365 0-1.885l-2.277-2.275zM14.667 23.448l-0.781-0.781 0.781-0.781 0.781 0.781-0.781 0.781z"></path>
<path d="M28.944 8.389l-2.277-2.275v-4.781c0-0.736-0.6-1.333-1.333-1.333s-1.333 0.597-1.333 1.333v4.781l-2.277 2.275c-0.52 0.52-0.52 1.365 0 1.885l2.277 2.277v18.115c0 0.733 0.6 1.333 1.333 1.333s1.333-0.6 1.333-1.333v-18.115l2.277-2.277c0.52-0.52 0.52-1.363 0-1.885zM25.333 10.115l-0.781-0.781 0.781-0.781 0.781 0.781-0.781 0.781z"></path>
</svg>
