<!-- Generated by IcoMoon.io -->
<svg version="1.1" xmlns="http://www.w3.org/2000/svg" width="13" height="18" viewBox="0 0 13 18">
<title>Share-18</title>
<path d="M12.5 7h-2.5c-0.275 0-0.5 0.224-0.5 0.5s0.225 0.5 0.5 0.5h2v9h-11v-9h2c0.276 0 0.5-0.224 0.5-0.5s-0.224-0.5-0.5-0.5h-2.5c-0.276 0-0.5 0.224-0.5 0.5v10c0 0.275 0.224 0.5 0.5 0.5h12c0.275 0 0.5-0.225 0.5-0.5v-10c0-0.276-0.225-0.5-0.5-0.5z"></path>
<path d="M2.854 4.854l3.146-3.147v10.293c0 0.275 0.224 0.5 0.5 0.5s0.5-0.225 0.5-0.5v-10.293l3.146 3.146c0.098 0.098 0.226 0.147 0.354 0.147s0.256-0.049 0.354-0.146c0.195-0.195 0.195-0.512 0-0.707l-4-4c-0.195-0.195-0.512-0.195-0.707 0l-4 4c-0.195 0.195-0.195 0.512 0 0.707s0.511 0.195 0.707 0z"></path>
</svg>
