<!-- Generated by IcoMoon.io -->
<svg version="1.1" xmlns="http://www.w3.org/2000/svg" width="34" height="36" viewBox="0 0 34 36">
<title>Skip-40</title>
<path d="M33.665 7.277l-16.2-7.2c-0.233-0.103-0.499-0.103-0.732 0l-16.2 7.2c-0.324 0.145-0.534 0.467-0.534 0.823v19.8c0 0.356 0.21 0.678 0.535 0.823l16.2 7.2c0.116 0.053 0.241 0.077 0.365 0.077s0.249-0.024 0.365-0.077l16.2-7.2c0.326-0.145 0.535-0.466 0.535-0.823v-19.8c0-0.356-0.209-0.678-0.535-0.823zM32.4 27.317l-15.3 6.8-15.3-6.8v-18.632l15.3-6.8 15.3 6.8v18.632z"></path>
<path d="M15.036 13.236c0.352-0.352 0.352-0.921 0-1.273s-0.921-0.352-1.273 0l-5.4 5.4c-0.083 0.083-0.149 0.183-0.194 0.293-0.091 0.221-0.091 0.468 0 0.689 0.046 0.11 0.112 0.21 0.194 0.293l5.4 5.4c0.175 0.175 0.406 0.263 0.636 0.263s0.461-0.088 0.636-0.264c0.352-0.352 0.352-0.921 0-1.273l-3.864-3.864h10.055l2.436 2.436c0.175 0.175 0.406 0.264 0.636 0.264s0.461-0.088 0.636-0.264c0.352-0.352 0.352-0.921 0-1.273l-2.7-2.7c-0.168-0.169-0.397-0.264-0.636-0.264h-10.427l3.864-3.864z"></path>
</svg>
