<!-- Generated by IcoMoon.io -->
<svg version="1.1" xmlns="http://www.w3.org/2000/svg" width="18" height="18" viewBox="0 0 18 18">
<title>Tuition-18</title>
<path d="M11.5 4h-3c-0.167 0-0.323 0.083-0.416 0.223l-2 3c-0.102 0.153-0.112 0.35-0.025 0.513s0.256 0.264 0.441 0.264h3c0.167 0 0.323-0.083 0.416-0.223l2-3c0.103-0.153 0.112-0.351 0.024-0.513-0.086-0.162-0.255-0.264-0.44-0.264zM9.232 7h-1.798l1.333-2h1.798l-1.333 2z"></path>
<path d="M17.979 5.397c-0.005-0.022-0.005-0.044-0.013-0.066-0.025-0.068-0.061-0.206-0.113-0.258l-0.999-1.073c-0.001 0-0.001 0-0.002 0l-2.998-3c-0.001 0-0.001 0-0.002 0l-0.999-0.927c-0.151-0.152-0.385-0.154-0.577-0.057l-12 6.019c-0.079 0.040-0.14 0.109-0.188 0.181-0.016 0.023-0.020 0.055-0.032 0.080-0.018 0.040-0.043 0.078-0.050 0.122-0.002 0.015 0.005 0.031 0.004 0.046-0.001 0.013-0.010 0.023-0.010 0.036v6c0 0.133 0.053 0.26 0.146 0.354l5 5c0.097 0.095 0.225 0.146 0.354 0.146 0.076 0 0.152-0.018 0.224-0.053l12-6c0.169-0.085 0.276-0.258 0.276-0.447v-6c0-0.036-0.013-0.069-0.021-0.103zM13.276 10.053l-7.276 3.638v-1.883l11-5.5v1.882l-3.724 1.863zM1 7.707l0.146 0.146c0 0-0.073 0-0.072 0.001l2.926 2.999c0 0.001 0 0.001 0 0.002l1 0.853v1.586l-4-4v-1.587zM7.382 10h-2.675l-2.707-2.707v-0.793c0-0.062-0.015-0.119-0.035-0.173l8.653-4.327h2.675l2.707 2.707v0.793c0 0.062 0.015 0.119 0.035 0.173l-8.653 4.327zM1 10.707l4 4v1.586l-4-4v-1.586zM6 16.691v-1.883l11-5.499v1.882l-11 5.5z"></path>
</svg>
