<!-- Generated by IcoMoon.io -->
<svg version="1.1" xmlns="http://www.w3.org/2000/svg" width="18" height="18" viewBox="0 0 18 18">
<title>Unmute-18</title>
<path d="M17.724 7.053l-1.724-0.862v-5.691c0-0.276-0.224-0.5-0.5-0.5h-3c-0.099 0-0.195 0.029-0.277 0.084l-5.874 3.916h-5.849c-0.276 0-0.5 0.224-0.5 0.5v9c0 0.276 0.224 0.5 0.5 0.5h5.849l5.874 3.916c0.082 0.055 0.178 0.084 0.277 0.084h3c0.276 0 0.5-0.224 0.5-0.5v-5.691l1.724-0.861c0.169-0.086 0.276-0.259 0.276-0.448v-3c0-0.189-0.107-0.362-0.276-0.447zM1 5h5v8h-5v-8zM15 17h-2.349l-5.651-3.768v-8.464l5.651-3.768h2.349v16zM17 10.191l-1 0.5v-3.381l1 0.5v2.381z"></path>
</svg>
