<!-- Generated by IcoMoon.io -->
<svg version="1.1" xmlns="http://www.w3.org/2000/svg" width="32" height="32" viewBox="0 0 32 32">
<title>Video-24</title>
<path d="M31.304 0h-30.609c-0.384 0-0.696 0.312-0.696 0.696v30.609c0 0.384 0.312 0.696 0.696 0.696h30.609c0.384 0 0.696-0.312 0.696-0.696v-30.609c0-0.384-0.312-0.696-0.696-0.696zM1.391 5.565h29.217v20.87h-29.217v-20.87zM30.609 1.391v2.783h-5.565v-2.783h5.565zM23.652 1.391v2.783h-6.957v-2.783h6.957zM15.304 1.391v2.783h-6.957v-2.783h6.957zM1.391 1.391h5.565v2.783h-5.565v-2.783zM1.391 30.609v-2.783h5.565v2.783h-5.565zM8.348 30.609v-2.783h6.957v2.783h-6.957zM16.696 30.609v-2.783h6.957v2.783h-6.957zM30.609 30.609h-5.565v-2.783h5.565v2.783z"></path>
<path d="M21.877 15.378l-11.13-5.565c-0.217-0.107-0.473-0.097-0.676 0.031-0.206 0.127-0.331 0.351-0.331 0.591v11.13c0 0.241 0.125 0.465 0.33 0.593 0.111 0.068 0.239 0.103 0.366 0.103 0.107 0 0.213-0.025 0.312-0.074l11.13-5.565c0.235-0.118 0.384-0.359 0.384-0.622s-0.149-0.504-0.384-0.622zM11.13 20.44v-8.879l8.879 4.44-8.879 4.44z"></path>
</svg>
