<!-- Generated by IcoMoon.io -->
<svg version="1.1" xmlns="http://www.w3.org/2000/svg" width="18" height="18" viewBox="0 0 18 18">
<title>Video-18</title>
<path d="M17.471 0h-16.941c-0.292 0-0.529 0.237-0.529 0.529v16.941c0 0.292 0.237 0.529 0.529 0.529h16.941c0.292 0 0.529-0.237 0.529-0.529v-16.941c0-0.292-0.237-0.529-0.529-0.529zM12.706 14.824v2.118h-3.176v-2.118h3.176zM9 13.765h-7.941v-9.529h15.882v9.529h-7.941zM9.529 3.176v-2.118h3.176v2.118h-3.176zM16.941 1.059v2.118h-3.176v-2.118h3.176zM8.471 3.176h-3.176v-2.118h3.176v2.118zM1.059 1.059h3.176v2.118h-3.176v-2.118zM1.059 14.824h3.176v2.118h-3.176v-2.118zM5.294 16.941v-2.118h3.176v2.118h-3.176zM16.941 16.941h-3.176v-2.118h3.176v2.118z"></path>
<path d="M11.355 8.527l-4.235-2.118c-0.165-0.083-0.359-0.074-0.515 0.023-0.157 0.096-0.252 0.267-0.252 0.45v4.235c0 0.183 0.095 0.354 0.251 0.451 0.085 0.052 0.182 0.078 0.278 0.078 0.082 0 0.162-0.019 0.237-0.056l4.235-2.118c0.179-0.090 0.292-0.273 0.292-0.473s-0.113-0.383-0.292-0.473zM7.412 10.261v-2.522l2.522 1.261-2.522 1.261z"></path>
</svg>
