<!-- Generated by IcoMoon.io -->
<svg version="1.1" xmlns="http://www.w3.org/2000/svg" width="32" height="32" viewBox="0 0 32 32">
<title>X-12</title>
<path d="M17.885 16l13.723-13.723c0.52-0.52 0.52-1.365 0-1.885s-1.365-0.52-1.885 0l-13.723 13.723-13.723-13.725c-0.52-0.52-1.365-0.52-1.885 0s-0.52 1.365 0 1.885l13.723 13.725-13.723 13.723c-0.52 0.52-0.52 1.365 0 1.885 0.259 0.261 0.6 0.392 0.941 0.392s0.683-0.131 0.944-0.389l13.723-13.725 13.723 13.723c0.261 0.261 0.603 0.392 0.944 0.392s0.683-0.131 0.944-0.389c0.52-0.52 0.52-1.365 0-1.885l-13.725-13.725z"></path>
</svg>
