<!-- Generated by IcoMoon.io -->
<svg version="1.1" xmlns="http://www.w3.org/2000/svg" width="29" height="32" viewBox="0 0 29 32">
<title>Ambassador-12</title>
<path d="M28.779 0.251c-0.349-0.251-0.792-0.325-1.2-0.181l-7.477 2.491-4.837-2.419c-0.376-0.187-0.819-0.187-1.192 0l-4.843 2.419-7.475-2.491c-0.408-0.141-0.853-0.069-1.2 0.181s-0.555 0.653-0.555 1.083v24c0 0.032 0.024 0.056 0.027 0.085 0.003 0.040-0.019 0.075-0.013 0.109 0.021 0.136 0.101 0.245 0.157 0.365 0.037 0.072 0.048 0.152 0.096 0.216 0.144 0.2 0.333 0.368 0.573 0.461l13.333 5.333c0.157 0.064 0.325 0.096 0.493 0.096s0.336-0.032 0.496-0.096l13.333-5.333c0.237-0.093 0.427-0.261 0.573-0.459 0.051-0.069 0.059-0.152 0.096-0.229 0.056-0.117 0.136-0.221 0.155-0.355 0.005-0.037-0.016-0.069-0.013-0.107 0-0.032 0.027-0.053 0.027-0.088v-24c0-0.429-0.205-0.832-0.555-1.083zM2.667 10.667h24v11.891l-11.168-8.933c-0.488-0.389-1.179-0.389-1.667 0l-11.165 8.933v-11.891zM2.667 3.184l6.245 2.080c0.336 0.112 0.701 0.085 1.019-0.072l4.736-2.368 4.736 2.368c0.317 0.16 0.683 0.187 1.019 0.072l6.245-2.080v4.816h-24v-4.816zM3.952 24.944l10.715-8.571 10.715 8.571-10.715 4.288-10.715-4.288z"></path>
</svg>
