<!-- Generated by IcoMoon.io -->
<svg version="1.1" xmlns="http://www.w3.org/2000/svg" width="32" height="32" viewBox="0 0 32 32">
<title>Line-Messenger</title>
<path d="M32 13.742c0-7.16-7.177-12.989-16-12.989-8.822 0-16 5.822-16 12.982 0 6.419 5.692 11.793 13.381 12.809 0.521 0.112 1.23 0.343 1.41 0.788 0.161 0.405 0.105 1.038 0.051 1.447 0 0-0.188 1.129-0.228 1.37-0.070 0.404-0.321 1.591 1.386 0.872s9.214-5.446 12.571-9.28h-0.001c2.319-2.507 3.429-5.133 3.429-7.998zM10.32 17.555c0 0.172-0.104 0.351-0.276 0.351h-4.484c-0.084 0-0.159-0.052-0.215-0.107-0.002-0.002-0.003-0.012-0.005-0.014s0.026-0.008 0.024-0.009c-0.054-0.056-0.058-0.137-0.058-0.22v-6.971c0-0.172 0.082-0.347 0.254-0.347h1.123c0.172 0 0.245 0.175 0.245 0.347v5.552h3.115c0.172 0 0.276 0.124 0.276 0.297v1.122zM13.122 17.447c0 0.172-0.139 0.311-0.312 0.311h-1.146c-0.172 0-0.312-0.139-0.312-0.311v-6.899c0-0.172 0.139-0.311 0.312-0.311h1.146c0.172 0 0.312 0.139 0.312 0.311v6.899zM20.79 17.556c0 0.172-0.144 0.35-0.316 0.35h-1.122c-0.028 0-0.054-0.024-0.080-0.030-0.002-0-0.003-0.011-0.005-0.011-0.007-0.002-0.014-0.009-0.021-0.012-0.003-0.001-0.006-0.005-0.009-0.006-0.005-0.002-0.010-0.005-0.015-0.008s-0.010-0.005-0.015-0.008c-0.003-0.002-0.006-0.003-0.009-0.005-0.006-0.004-0.013-0.008-0.019-0.012-0.001-0.001-0.002-0.002-0.003-0.003-0.030-0.020-0.044-0.046-0.066-0.077l-3.186-4.32v4.141c0 0.172-0.166 0.35-0.338 0.35h-1.122c-0.172 0-0.309-0.178-0.309-0.35v-6.972c0-0.171 0.137-0.347 0.309-0.347h1.122c0.004 0 0.007 0.018 0.011 0.018 0.006 0 0.011 0.009 0.016 0.010s0.011 0.005 0.017 0.007c0.004 0 0.009 0.003 0.013 0.004 0.006 0.001 0.012 0.004 0.018 0.005 0.004 0.001 0.007 0.002 0.011 0.004 0.007 0.002 0.013 0.004 0.019 0.006 0.003 0.001 0.006 0.002 0.010 0.004 0.006 0.002 0.012 0.005 0.018 0.008 0.003 0.001 0.006 0.003 0.010 0.005 0.006 0.003 0.011 0.006 0.017 0.009 0.003 0.002 0.006 0.003 0.009 0.005 0.006 0.003 0.011 0.007 0.016 0.011 0.003 0.002 0.005 0.004 0.008 0.007 0.006 0.004 0.011 0.009 0.017 0.014 0.002 0.002 0.004 0.003 0.006 0.005 0.007 0.006 0.013 0.012 0.019 0.019l0.002 0.002c0.009 0.010 0.007 0.021 0.015 0.032l3.185 4.315v-4.142c0-0.171 0.159-0.347 0.331-0.347h1.122c0.173 0 0.316 0.175 0.316 0.347v6.972zM26.984 11.707c0 0.172-0.14 0.3-0.312 0.3h-3.079v1.18h3.079c0.172 0 0.312 0.15 0.312 0.322v1.122c0 0.172-0.14 0.325-0.312 0.325h-3.079v1.18h3.079c0.172 0 0.312 0.125 0.312 0.297v1.123c0 0.172-0.14 0.351-0.312 0.351h-4.484c-0.083 0-0.159-0.053-0.215-0.107-0.002-0.001-0.003-0.012-0.005-0.014s-0.030-0.008-0.031-0.009c-0.054-0.056-0.114-0.137-0.114-0.22v-6.971c0-0.083 0.060-0.159 0.114-0.215 0.002-0.002 0.016-0.004 0.018-0.005 0.001-0.001 0.009-0.020 0.010-0.021 0.056-0.054 0.139-0.106 0.223-0.106h4.484c0.172 0 0.312 0.175 0.312 0.347v1.122z"></path>
</svg>
