<!-- Generated by IcoMoon.io -->
<svg version="1.1" xmlns="http://www.w3.org/2000/svg" width="31" height="32" viewBox="0 0 31 32">
<title>School-24</title>
<path d="M30 28h-0.667v-15.333c0-0.012-0.007-0.023-0.007-0.035-0.001-0.028-0.012-0.051-0.016-0.077-0.016-0.088-0.045-0.167-0.092-0.239-0.009-0.016-0.008-0.035-0.019-0.049l-4-5.333c-0.125-0.168-0.324-0.267-0.533-0.267h-8.667v-1.333h4.667c0.368 0 0.667-0.299 0.667-0.667v-4c0-0.368-0.299-0.667-0.667-0.667h-6v6.667h-8.667c-0.209 0-0.408 0.099-0.533 0.267l-4 5.333c-0.011 0.013-0.008 0.032-0.017 0.047-0.048 0.073-0.079 0.153-0.093 0.243-0.004 0.027-0.013 0.048-0.015 0.075-0.001 0.012-0.008 0.023-0.008 0.036v15.333h-0.667c-0.368 0-0.667 0.299-0.667 0.667v2.667c0 0.368 0.299 0.667 0.667 0.667h29.333c0.368 0 0.667-0.299 0.667-0.667v-2.667c0-0.368-0.299-0.667-0.667-0.667zM16 1.333h4v2.667h-4v-2.667zM6.333 8h18l3 4h-24l3-4zM2.667 13.333h25.333v14.667h-8v-4.667c0-0.368-0.299-0.667-0.667-0.667h-8c-0.368 0-0.667 0.299-0.667 0.667v4.667h-8v-14.667zM18.667 28h-6.667v-4h6.667v4zM29.333 30.667h-28v-1.333h28v1.333z"></path>
<path d="M14.861 21.139c0.131 0.129 0.301 0.195 0.472 0.195s0.341-0.065 0.472-0.195l2.667-2.667c0.26-0.26 0.26-0.683 0-0.943l-2.667-2.667c-0.26-0.26-0.683-0.26-0.943 0l-2.667 2.667c-0.26 0.26-0.26 0.683 0 0.943l2.665 2.667zM15.333 16.276l1.724 1.724-1.724 1.724-1.724-1.724 1.724-1.724z"></path>
</svg>
