<!-- Generated by IcoMoon.io -->
<svg version="1.1" xmlns="http://www.w3.org/2000/svg" width="24" height="32" viewBox="0 0 24 32">
<title>Share-12</title>
<path d="M22.667 13.333h-4c-0.733 0-1.333 0.597-1.333 1.333s0.6 1.333 1.333 1.333h2.667v13.333h-18.667v-13.333h2.667c0.736 0 1.333-0.597 1.333-1.333s-0.597-1.333-1.333-1.333h-4c-0.736 0-1.333 0.597-1.333 1.333v16c0 0.733 0.597 1.333 1.333 1.333h21.333c0.733 0 1.333-0.6 1.333-1.333v-16c0-0.736-0.6-1.333-1.333-1.333z"></path>
<path d="M4.944 10.277l5.723-5.725v16.781c0 0.733 0.597 1.333 1.333 1.333s1.333-0.6 1.333-1.333v-16.781l5.723 5.723c0.261 0.261 0.603 0.392 0.944 0.392s0.683-0.131 0.944-0.389c0.52-0.52 0.52-1.365 0-1.885l-8-8c-0.52-0.52-1.365-0.52-1.885 0l-8 8c-0.52 0.52-0.52 1.365 0 1.885s1.363 0.52 1.885 0z"></path>
</svg>
