<!-- Generated by IcoMoon.io -->
<svg version="1.1" xmlns="http://www.w3.org/2000/svg" width="36" height="36" viewBox="0 0 36 36">
<title>Chevron-Down-Circle-10</title>
<path d="M18 0c-9.925 0-18 8.075-18 18s8.075 18 18 18 18-8.075 18-18-8.075-18-18-18zM18 32.4c-7.942 0-14.4-6.458-14.4-14.4s6.458-14.4 14.4-14.4c7.942 0 14.4 6.458 14.4 14.4s-6.458 14.4-14.4 14.4z"></path>
<path d="M28.408 15.077c-0.616-0.77-1.75-0.9-2.531-0.284l-7.877 6.304-7.877-6.3c-0.778-0.623-1.908-0.49-2.531 0.281-0.619 0.778-0.493 1.908 0.281 2.531l9 7.2c0.331 0.263 0.731 0.392 1.127 0.392s0.796-0.13 1.127-0.392l9-7.2c0.774-0.623 0.9-1.757 0.281-2.531z"></path>
</svg>
