<!-- Generated by IcoMoon.io -->
<svg version="1.1" xmlns="http://www.w3.org/2000/svg" width="32" height="32" viewBox="0 0 32 32">
<title>Whatsapp</title>
<path d="M27.283 4.651c-2.992-2.997-6.975-4.649-11.216-4.651-8.74 0-15.853 7.113-15.857 15.856 0 2.795 0.729 5.521 2.117 7.928l-2.249 8.216 8.407-2.205c2.316 1.264 4.924 1.929 7.577 1.931h0.007c8.739 0 15.853-7.113 15.856-15.857 0.001-4.236-1.647-8.22-4.641-11.217zM16.067 29.047h-0.005c-2.365 0-4.685-0.636-6.708-1.836l-0.481-0.287-4.988 1.308 1.332-4.863-0.313-0.499c-1.32-2.097-2.016-4.525-2.015-7.015 0.003-7.267 5.916-13.179 13.185-13.179 3.52 0.001 6.831 1.373 9.317 3.865 2.489 2.491 3.86 5.803 3.857 9.324-0.004 7.269-5.916 13.18-13.181 13.18zM23.296 19.177c-0.396-0.199-2.344-1.157-2.705-1.289-0.364-0.133-0.628-0.197-0.893 0.197-0.263 0.396-1.024 1.289-1.255 1.553-0.229 0.264-0.461 0.299-0.857 0.099-0.396-0.197-1.673-0.616-3.187-1.968-1.177-1.049-1.973-2.347-2.204-2.744s-0.025-0.611 0.173-0.808c0.179-0.177 0.396-0.463 0.595-0.695 0.197-0.229 0.264-0.395 0.396-0.66 0.132-0.264 0.065-0.496-0.033-0.695s-0.891-2.147-1.221-2.941c-0.321-0.772-0.648-0.668-0.892-0.68-0.231-0.011-0.495-0.013-0.759-0.013s-0.693 0.099-1.057 0.496c-0.363 0.396-1.387 1.355-1.387 3.305 0 1.949 1.42 3.833 1.617 4.099s2.793 4.267 6.768 5.983c0.944 0.409 1.684 0.652 2.26 0.835 0.948 0.303 1.812 0.259 2.495 0.157 0.76-0.113 2.344-0.96 2.675-1.884 0.331-0.925 0.331-1.719 0.232-1.884s-0.364-0.265-0.76-0.463z"></path>
</svg>
