<!-- Generated by IcoMoon.io -->
<svg version="1.1" xmlns="http://www.w3.org/2000/svg" width="18" height="18" viewBox="0 0 18 18">
<title>X-10</title>
<path d="M10.273 9l7.463-7.463c0.351-0.351 0.351-0.922 0-1.273s-0.922-0.351-1.273 0l-7.463 7.463-7.463-7.465c-0.351-0.351-0.922-0.351-1.273 0s-0.351 0.922 0 1.273l7.463 7.465-7.465 7.463c-0.351 0.351-0.351 0.922 0 1.273 0.176 0.176 0.407 0.265 0.637 0.265s0.461-0.088 0.637-0.263l7.463-7.465 7.463 7.463c0.176 0.176 0.407 0.265 0.637 0.265s0.461-0.088 0.637-0.263c0.351-0.351 0.351-0.922 0-1.273l-7.465-7.465z"></path>
</svg>
