<!-- Generated by IcoMoon.io -->
<svg version="1.1" xmlns="http://www.w3.org/2000/svg" width="32" height="32" viewBox="0 0 32 32">
<title>English-24</title>
<path d="M13.139 5.528c-0.26-0.26-0.683-0.26-0.943 0l-4 4c-0.125 0.125-0.196 0.295-0.196 0.472v10.667c0 0.367 0.3 0.667 0.667 0.667s0.667-0.3 0.667-0.667v-4.667h6.667v4.667c0 0.367 0.3 0.667 0.667 0.667s0.667-0.3 0.667-0.667v-10.667c0-0.177-0.071-0.347-0.195-0.472l-4-4zM9.333 14.667v-4.391l3.333-3.333 3.333 3.333v4.391h-6.667z"></path>
<path d="M31.333 26.667c0.368 0 0.667-0.299 0.667-0.667v-25.333c0-0.368-0.299-0.667-0.667-0.667h-26.667c-0.007 0-0.012 0.004-0.019 0.004-0.020 0-0.037 0.009-0.056 0.012-0.092 0.011-0.176 0.039-0.253 0.083-0.013 0.007-0.029 0.005-0.043 0.013l-4 2.667c-0.185 0.124-0.296 0.332-0.296 0.555v25.333c0 0.117 0.033 0.228 0.091 0.328 0.019 0.031 0.051 0.051 0.073 0.080 0.041 0.052 0.076 0.109 0.133 0.147l4 2.667c0.109 0.073 0.237 0.112 0.369 0.112h26.667c0.368 0 0.667-0.299 0.667-0.667s-0.299-0.667-0.667-0.667h-26.465l-3-2 3-2h26.465zM1.333 3.691l2.667-1.777v23.731l-2.667 1.777v-23.731zM5.333 25.333v-24h25.333v24h-25.333z"></path>
<path d="M6 28c-0.368 0-0.667 0.299-0.667 0.667s0.299 0.667 0.667 0.667h24c0.368 0 0.667-0.299 0.667-0.667s-0.299-0.667-0.667-0.667h-24z"></path>
<path d="M27.333 13.333h-4c-0.177 0-0.347 0.071-0.472 0.195l-2.667 2.667c-0.124 0.125-0.195 0.295-0.195 0.472v4c0 0.199 0.089 0.389 0.244 0.516 0.12 0.099 0.271 0.151 0.423 0.151 0.043 0 0.087-0.004 0.131-0.013l5.869-1.175v0.521c0 0.367 0.3 0.667 0.667 0.667s0.667-0.3 0.667-0.667v-6.667c0-0.368-0.299-0.667-0.667-0.667zM21.333 19.853v-2.911l2.276-2.276h3.057v4.12l-5.333 1.067z"></path>
</svg>
