<!-- Generated by IcoMoon.io -->
<svg version="1.1" xmlns="http://www.w3.org/2000/svg" width="18" height="18" viewBox="0 0 18 18">
<title>English-18</title>
<path d="M7.854 3.146c-0.195-0.195-0.512-0.195-0.707 0l-2 2c-0.094 0.094-0.147 0.221-0.147 0.354v5c0 0.275 0.225 0.5 0.5 0.5s0.5-0.225 0.5-0.5v-1.5h3v1.5c0 0.275 0.225 0.5 0.5 0.5s0.5-0.225 0.5-0.5v-5c0-0.133-0.053-0.26-0.146-0.354l-2-2zM6 8v-2.293l1.5-1.5 1.5 1.5v2.293h-3z"></path>
<path d="M17.5 14c0.276 0 0.5-0.224 0.5-0.5v-13c0-0.276-0.224-0.5-0.5-0.5h-15c-0.023 0-0.042 0.010-0.064 0.013s-0.041 0.007-0.063 0.012c-0.086 0.024-0.166 0.061-0.227 0.122l-2 2c-0.093 0.093-0.146 0.22-0.146 0.353v13c0 0.086 0.030 0.168 0.074 0.244 0.011 0.021 0.022 0.037 0.037 0.056 0.013 0.018 0.020 0.038 0.036 0.054l2 2c0.093 0.093 0.22 0.146 0.353 0.146h15c0.276 0 0.5-0.224 0.5-0.5s-0.224-0.5-0.5-0.5h-14.793l-1.5-1.5 1.5-1.5h14.793zM1 14.293v-11.586l1-1v11.586l-1 1zM3 13v-12h14v12h-14z"></path>
<path d="M3.5 15c-0.276 0-0.5 0.224-0.5 0.5s0.224 0.5 0.5 0.5h13c0.276 0 0.5-0.224 0.5-0.5s-0.224-0.5-0.5-0.5h-13z"></path>
<path d="M14.5 7h-2c-0.133 0-0.26 0.053-0.354 0.146l-1 1c-0.093 0.095-0.146 0.222-0.146 0.354v2c0 0.161 0.077 0.312 0.208 0.405 0.086 0.063 0.188 0.095 0.292 0.095 0.053 0 0.106-0.009 0.158-0.025l2.342-0.782v0.307c0 0.275 0.225 0.5 0.5 0.5s0.5-0.225 0.5-0.5v-3c0-0.276-0.224-0.5-0.5-0.5zM12 9.806v-1.098l0.707-0.708h1.293v1.14l-2 0.666z"></path>
</svg>
