<!-- Generated by IcoMoon.io -->
<svg version="1.1" xmlns="http://www.w3.org/2000/svg" width="18" height="18" viewBox="0 0 18 18">
<title>Plus-Hexagon-18</title>
<path d="M17.709 4.291l-8.471-4.235c-0.149-0.074-0.325-0.074-0.473 0l-8.471 4.235c-0.181 0.090-0.294 0.273-0.294 0.473v8.471c0 0.2 0.113 0.382 0.292 0.473l8.471 4.235c0.075 0.037 0.156 0.056 0.237 0.056s0.162-0.019 0.237-0.056l8.471-4.235c0.179-0.091 0.292-0.273 0.292-0.473v-8.471c0-0.2-0.113-0.383-0.291-0.473zM16.941 12.908l-7.941 3.971-7.941-3.971v-7.816l7.941-3.971 7.941 3.971v7.816z"></path>
<path d="M8.471 4.765v3.706h-3.706c-0.292 0-0.529 0.237-0.529 0.529s0.237 0.529 0.529 0.529h3.706v3.706c0 0.291 0.237 0.529 0.529 0.529s0.529-0.238 0.529-0.529v-3.706h3.706c0.291 0 0.529-0.237 0.529-0.529s-0.238-0.529-0.529-0.529h-3.706v-3.706c0-0.292-0.237-0.529-0.529-0.529s-0.529 0.237-0.529 0.529z"></path>
</svg>
