<!-- Generated by IcoMoon.io -->
<svg version="1.1" xmlns="http://www.w3.org/2000/svg" width="15" height="18" viewBox="0 0 15 18">
<title>Ribbon-18</title>
<path d="M14.96 17.303l-2.909-6.787 1.896-3.792c0.070-0.141 0.070-0.307 0-0.447l-2-4c-0.049-0.097-0.127-0.175-0.224-0.224l-4-2c-0.141-0.070-0.307-0.070-0.447 0l-4 2c-0.096 0.048-0.175 0.127-0.223 0.223l-2 4c-0.070 0.141-0.070 0.307 0 0.447l1.896 3.793-2.909 6.786c-0.078 0.182-0.042 0.391 0.091 0.536 0.098 0.105 0.232 0.162 0.369 0.162 0.053 0 0.106-0.009 0.158-0.025l2.803-0.935 1.815 0.907c0.125 0.063 0.27 0.068 0.401 0.021 0.131-0.050 0.234-0.152 0.287-0.282l1.536-3.839 1.536 3.839c0.052 0.13 0.155 0.232 0.286 0.282 0.132 0.050 0.276 0.043 0.401-0.021l1.814-0.907 2.804 0.935c0.053 0.016 0.106 0.025 0.159 0.025 0.138 0 0.271-0.057 0.368-0.161 0.133-0.146 0.169-0.355 0.092-0.536zM3.873 2.873l3.627-1.814 3.627 1.813 1.814 3.628-1.814 3.627-3.627 1.814-3.627-1.814-1.814-3.627 1.814-3.627zM5.238 16.81l-1.514-0.757c-0.071-0.035-0.147-0.053-0.224-0.053-0.053 0-0.106 0.009-0.158 0.025l-1.944 0.648 2.353-5.489 3.114 1.556-1.627 4.070zM11.658 16.025c-0.126-0.040-0.262-0.031-0.382 0.027l-1.513 0.758-1.628-4.068 3.114-1.557 2.353 5.489-1.944-0.649z"></path>
<path d="M7.146 8.853c0.098 0.098 0.226 0.147 0.354 0.147s0.256-0.049 0.354-0.146l2-2c0.093-0.094 0.146-0.221 0.146-0.354s-0.053-0.26-0.146-0.354l-2-2c-0.195-0.195-0.512-0.195-0.707 0l-2 2c-0.094 0.094-0.147 0.221-0.147 0.354s0.053 0.26 0.146 0.354l2 1.999zM7.5 5.208l1.293 1.292-1.293 1.292-1.293-1.292 1.293-1.292z"></path>
</svg>
