<!-- Generated by IcoMoon.io -->
<svg version="1.1" xmlns="http://www.w3.org/2000/svg" width="19" height="18" viewBox="0 0 19 18">
<title>Error-18</title>
<path d="M19.059 17.173l-9-16.875c-0.196-0.367-0.798-0.367-0.993 0l-9 16.875c-0.093 0.174-0.088 0.385 0.015 0.554 0.102 0.17 0.285 0.273 0.483 0.273h18c0.198 0 0.381-0.104 0.483-0.273 0.102-0.17 0.106-0.379 0.014-0.553zM1.5 16.875l8.063-15.117 8.063 15.117h-16.126z"></path>
<path d="M9 7.313v3.375c0 0.309 0.253 0.563 0.563 0.563s0.563-0.253 0.563-0.563v-3.375c0-0.309-0.253-0.563-0.563-0.563s-0.563 0.253-0.563 0.563z"></path>
<path d="M9.563 12.375c-0.309 0-0.563 0.253-0.563 0.563v1.125c0 0.309 0.253 0.563 0.563 0.563s0.563-0.253 0.563-0.563v-1.125c0-0.309-0.253-0.563-0.563-0.563z"></path>
</svg>
