<!-- Generated by IcoMoon.io -->
<svg version="1.1" xmlns="http://www.w3.org/2000/svg" width="32" height="32" viewBox="0 0 32 32">
<title>Star-12</title>
<path d="M31.936 12.339c-0.168-0.509-0.619-0.872-1.155-0.917l-9.747-0.835-3.808-9.011c-0.416-0.987-2.040-0.989-2.456 0l-3.805 9.011-9.747 0.837c-0.533 0.045-0.989 0.405-1.155 0.917-0.165 0.509-0.011 1.067 0.395 1.419l7.395 6.405-2.216 9.523c-0.123 0.52 0.080 1.064 0.515 1.381 0.232 0.168 0.507 0.256 0.784 0.256 0.237 0 0.477-0.061 0.688-0.192l8.376-5.048 8.379 5.051c0.459 0.277 1.045 0.251 1.472-0.064 0.432-0.315 0.635-0.859 0.515-1.381l-2.216-9.525 7.389-6.405c0.405-0.352 0.563-0.912 0.397-1.421zM21.795 18.675c-0.376 0.323-0.539 0.829-0.427 1.309l1.685 7.235-6.365-3.835c-0.211-0.128-0.451-0.189-0.688-0.189s-0.477 0.064-0.688 0.192l-6.363 3.835 1.683-7.235c0.112-0.483-0.051-0.987-0.424-1.309l-5.616-4.867 7.405-0.635c0.493-0.043 0.923-0.355 1.112-0.811l2.891-6.843 2.891 6.843c0.192 0.453 0.621 0.768 1.115 0.808l7.403 0.635-5.613 4.867z"></path>
</svg>
