<!-- Generated by IcoMoon.io -->
<svg version="1.1" xmlns="http://www.w3.org/2000/svg" width="18" height="18" viewBox="0 0 18 18">
<title>Chest-18</title>
<path d="M17.854 2.146l-2-2c-0.094-0.093-0.221-0.146-0.354-0.146h-13c-0.133 0-0.26 0.053-0.354 0.146l-2 2c-0.093 0.094-0.146 0.221-0.146 0.354v15c0 0.276 0.224 0.5 0.5 0.5h17c0.276 0 0.5-0.224 0.5-0.5v-15c0-0.133-0.053-0.26-0.146-0.354zM17 2.707v4.293h-2v-6h0.293l1.707 1.707zM14 1v6h-10v-6h10zM8 8h2v2h-2v-2zM1 2.707l1.707-1.707h0.293v6h-2v-4.293zM1 8h2v9h-2v-9zM4 17v-9h3v2.5c0 0.276 0.224 0.5 0.5 0.5h3c0.276 0 0.5-0.224 0.5-0.5v-2.5h3v9h-10zM17 17h-2v-9h2v9z"></path>
</svg>
