<!-- Generated by IcoMoon.io -->
<svg version="1.1" xmlns="http://www.w3.org/2000/svg" width="18" height="18" viewBox="0 0 18 18">
<title>Gender-Other-18</title>
<path d="M17.854 9.146l-4-4c-0.094-0.093-0.221-0.146-0.354-0.146h-4c-0.133 0-0.26 0.053-0.354 0.146l-1.646 1.647-0.646-0.647-1.647-1.646 1.646-1.646c0.195-0.195 0.195-0.512 0-0.707s-0.512-0.195-0.707 0l-1.646 1.646-2.793-2.793h2.793c0.276 0 0.5-0.224 0.5-0.5s-0.224-0.5-0.5-0.5h-4c-0.065 0-0.13 0.013-0.191 0.039-0.123 0.050-0.22 0.148-0.271 0.271-0.025 0.060-0.038 0.125-0.038 0.19v4c0 0.276 0.224 0.5 0.5 0.5s0.5-0.224 0.5-0.5v-2.793l2.793 2.793-1.647 1.646c-0.195 0.195-0.195 0.512 0 0.707 0.098 0.098 0.226 0.147 0.354 0.147s0.256-0.049 0.354-0.146l1.646-1.647 2.293 2.293-1.647 1.646c-0.093 0.094-0.146 0.221-0.146 0.354v4c0 0.133 0.053 0.26 0.146 0.354l4 4c0.094 0.093 0.221 0.146 0.354 0.146h4c0.133 0 0.26-0.053 0.354-0.146l4-4c0.093-0.094 0.146-0.221 0.146-0.354v-4c0-0.133-0.053-0.26-0.146-0.354zM17 13.293l-3.707 3.707h-3.586l-3.707-3.707v-3.586l3.707-3.707h3.586l3.707 3.707v3.586z"></path>
</svg>
