<!-- Generated by IcoMoon.io -->
<svg version="1.1" xmlns="http://www.w3.org/2000/svg" width="18" height="18" viewBox="0 0 18 18">
<title>Hashtag-18</title>
<path d="M17.883 0.179c-0.095-0.114-0.236-0.179-0.383-0.179h-14c-0.243 0-0.45 0.174-0.492 0.413l-3 17c-0.026 0.146 0.014 0.295 0.109 0.408s0.235 0.179 0.383 0.179h14c0.242 0 0.45-0.174 0.492-0.413l3-17c0.027-0.146-0.013-0.295-0.109-0.408zM14.080 17h-12.984l2.823-16h12.985l-2.824 16z"></path>
<path d="M4 11c-0.276 0-0.5 0.224-0.5 0.5s0.224 0.5 0.5 0.5h1.89l-0.38 1.902c-0.054 0.271 0.122 0.534 0.392 0.588 0.033 0.007 0.066 0.010 0.098 0.010 0.233 0 0.442-0.164 0.49-0.402l0.42-2.098h2.98l-0.38 1.902c-0.054 0.271 0.122 0.534 0.392 0.588 0.033 0.007 0.066 0.010 0.099 0.010 0.233 0 0.441-0.164 0.489-0.402l0.42-2.098h2.090c0.276 0 0.5-0.224 0.5-0.5s-0.224-0.5-0.5-0.5h-1.891l0.801-4h2.090c0.276 0 0.5-0.224 0.5-0.5s-0.224-0.5-0.5-0.5h-1.891l0.381-1.902c0.055-0.271-0.121-0.534-0.393-0.588-0.26-0.054-0.533 0.12-0.588 0.392l-0.419 2.098h-2.98l0.38-1.902c0.054-0.271-0.121-0.534-0.392-0.588-0.275-0.058-0.534 0.121-0.588 0.392l-0.42 2.098h-2.090c-0.276 0-0.5 0.224-0.5 0.5s0.224 0.5 0.5 0.5h1.89l-0.8 4h-2.090zM7.91 7h2.981l-0.801 4h-2.98l0.8-4z"></path>
</svg>
