<!-- Generated by IcoMoon.io -->
<svg version="1.1" xmlns="http://www.w3.org/2000/svg" width="29" height="32" viewBox="0 0 29 32">
<title>Lightning-12</title>
<path d="M29.232 11.491c-0.205-0.499-0.693-0.824-1.232-0.824h-7.987l1.307-9.144c0.080-0.568-0.211-1.125-0.723-1.381-0.515-0.259-1.136-0.157-1.541 0.248l-18.667 18.667c-0.381 0.381-0.496 0.957-0.288 1.453 0.205 0.499 0.693 0.824 1.232 0.824h7.987l-1.307 9.147c-0.080 0.568 0.211 1.125 0.723 1.384 0.192 0.088 0.395 0.136 0.597 0.136 0.344 0 0.685-0.136 0.944-0.389l18.667-18.667c0.379-0.384 0.493-0.955 0.288-1.453zM11.219 26.896l0.957-6.709c0.056-0.387-0.059-0.768-0.312-1.059-0.253-0.293-0.621-0.461-1.008-0.461h-6.304l13.563-13.563-0.957 6.707c-0.056 0.384 0.059 0.771 0.312 1.064 0.253 0.291 0.621 0.459 1.011 0.459h6.301l-13.563 13.563z"></path>
</svg>
