<!-- Generated by IcoMoon.io -->
<svg version="1.1" xmlns="http://www.w3.org/2000/svg" width="18" height="18" viewBox="0 0 18 18">
<title>To-Do-18</title>
<path d="M18 0.5c0-0.276-0.224-0.5-0.5-0.5h-17c-0.276 0-0.5 0.224-0.5 0.5v17c0 0.276 0.224 0.5 0.5 0.5h14c0.065 0 0.13-0.013 0.19-0.038 0.061-0.024 0.116-0.062 0.163-0.108l3-3c0.063-0.063 0.099-0.143 0.121-0.228 0.006-0.021 0.010-0.039 0.013-0.061s0.013-0.043 0.013-0.065v-14zM1 1h16v13h-2.5c-0.276 0-0.5 0.224-0.5 0.5v2.5h-13v-16zM15 16.293v-1.293h1.293l-1.293 1.293z"></path>
<path d="M8.1 3.2l-2.654 3.539-1.592-1.593c-0.195-0.195-0.512-0.195-0.707 0s-0.195 0.512 0 0.707l2 2c0.094 0.095 0.221 0.147 0.353 0.147 0.012 0 0.023 0 0.036-0.001 0.144-0.011 0.277-0.083 0.364-0.199l3-4c0.166-0.221 0.121-0.534-0.1-0.7s-0.534-0.122-0.7 0.1z"></path>
<path d="M8.1 9.2l-2.654 3.539-1.592-1.593c-0.195-0.195-0.512-0.195-0.707 0s-0.195 0.512 0 0.707l2 2c0.094 0.094 0.221 0.147 0.353 0.147 0.012 0 0.023 0 0.036 0 0.145 0 0.277-0.084 0.364-0.199l3-4.001c0.166-0.221 0.121-0.534-0.1-0.7s-0.534-0.121-0.7 0.1z"></path>
<path d="M10.5 6h4c0.275 0 0.5-0.225 0.5-0.5s-0.225-0.5-0.5-0.5h-4c-0.275 0-0.5 0.225-0.5 0.5s0.225 0.5 0.5 0.5z"></path>
<path d="M14.5 12c0.275 0 0.5-0.225 0.5-0.5s-0.225-0.5-0.5-0.5h-4c-0.275 0-0.5 0.225-0.5 0.5s0.225 0.5 0.5 0.5h4z"></path>
</svg>
