<!-- Generated by IcoMoon.io -->
<svg version="1.1" xmlns="http://www.w3.org/2000/svg" width="18" height="18" viewBox="0 0 18 18">
<title>Graduate-18</title>
<path d="M18 5.5c0-0.177-0.094-0.341-0.246-0.431l-8.5-5c-0.156-0.092-0.351-0.092-0.507 0l-8.5 5c-0.153 0.090-0.247 0.254-0.247 0.431s0.094 0.341 0.247 0.431l1.76 1.035c-0.001 0.012-0.007 0.022-0.007 0.034v5.5c0 0.174 0.090 0.335 0.238 0.426l6.5 4c0.080 0.050 0.171 0.074 0.262 0.074s0.182-0.024 0.262-0.074l3.738-2.301v2.875c0 0.275 0.225 0.5 0.5 0.5s0.5-0.225 0.5-0.5v-3.49l1.762-1.084c0.148-0.091 0.238-0.252 0.238-0.426v-5.5c0-0.012-0.006-0.021-0.007-0.033l1.761-1.036c0.152-0.090 0.246-0.254 0.246-0.431zM9 15.913l-6-3.692v-4.67l5.747 3.38c0.078 0.046 0.166 0.069 0.253 0.069s0.175-0.023 0.253-0.069l3.747-2.204v4.724l-4 2.462zM15 12.221l-1 0.615v-4.697l1-0.588v4.67zM13.788 7.103c0 0-0.001-0.001-0.002-0.001-0.021-0.016-0.038-0.037-0.063-0.049l-4-2c-0.245-0.123-0.547-0.024-0.67 0.223s-0.024 0.548 0.223 0.671l3.501 1.75-3.777 2.223-7.514-4.42 7.514-4.42 7.514 4.42-2.726 1.603z"></path>
</svg>
