<!-- Generated by IcoMoon.io -->
<svg version="1.1" xmlns="http://www.w3.org/2000/svg" width="32" height="32" viewBox="0 0 32 32">
<title>Notepad-24</title>
<path d="M23.333 1.333h-2v-1.333h-1.333v1.333h-2.667v-1.333h-1.333v1.333h-8v-1.333h-1.333v1.333h-2.667v-1.333h-1.333v1.333h-2c-0.368 0-0.667 0.299-0.667 0.667v29.333c0 0.368 0.299 0.667 0.667 0.667h22.667c0.368 0 0.667-0.299 0.667-0.667v-29.333c0-0.368-0.299-0.667-0.667-0.667zM22.667 30.667h-21.333v-28h1.333v1.333h1.333v-1.333h2.667v1.333h1.333v-1.333h8v1.333h1.333v-1.333h2.667v1.333h1.333v-1.333h1.333v28z"></path>
<path d="M4 6.667h16v1.333h-16v-1.333z"></path>
<path d="M4 10.667h16v1.333h-16v-1.333z"></path>
<path d="M4 14.667h16v1.333h-16v-1.333z"></path>
<path d="M4 18.667h16v1.333h-16v-1.333z"></path>
<path d="M4 22.667h16v1.333h-16v-1.333z"></path>
<path d="M4 26.667h16v1.333h-16v-1.333z"></path>
<path d="M31.333 1.333h-4c-0.368 0-0.667 0.299-0.667 0.667v25.333c0 0.048 0.019 0.091 0.028 0.137 0.005 0.025-0.001 0.049 0.007 0.075l1.333 4c0.091 0.271 0.345 0.455 0.632 0.455h1.333c0.287 0 0.541-0.184 0.633-0.456l1.333-4c0.008-0.025 0.001-0.049 0.007-0.075 0.008-0.045 0.027-0.088 0.027-0.136v-25.333c0-0.368-0.299-0.667-0.667-0.667zM30.667 6.667h-2.667v-1.333h2.667v1.333zM28 8h2.667v18.667h-2.667v-18.667zM28 2.667h2.667v1.333h-2.667v-1.333zM29.52 30.667h-0.373l-0.889-2.667h2.151l-0.888 2.667z"></path>
</svg>
