<!-- Generated by IcoMoon.io -->
<svg version="1.1" xmlns="http://www.w3.org/2000/svg" width="41" height="36" viewBox="0 0 41 36">
<title>Envelope-18</title>
<path d="M39.6 0h-38.4c-0.662 0-1.2 0.538-1.2 1.2v33.6c0 0.662 0.538 1.2 1.2 1.2h38.4c0.662 0 1.2-0.538 1.2-1.2v-33.6c0-0.662-0.538-1.2-1.2-1.2zM2.4 8.4l12.082 9.060-12.082 14.095v-23.155zM16.404 18.902l3.276 2.458c0.214 0.161 0.468 0.24 0.72 0.24s0.506-0.079 0.72-0.24l3.274-2.455 12.598 14.695h-33.182l12.595-14.698zM26.318 17.46l12.082-9.060v23.155l-12.082-14.095zM38.4 2.4v3l-18 13.5-18-13.5v-3h36z"></path>
</svg>
