<!-- Generated by IcoMoon.io -->
<svg version="1.1" xmlns="http://www.w3.org/2000/svg" width="32" height="32" viewBox="0 0 32 32">
<title>X-Circle-12</title>
<path d="M16 0c-8.835 0-16 7.165-16 16s7.165 16 16 16 16-7.165 16-16-7.165-16-16-16zM16 29.333c-7.352 0-13.333-5.981-13.333-13.333s5.981-13.333 13.333-13.333 13.333 5.981 13.333 13.333-5.981 13.333-13.333 13.333z"></path>
<path d="M23.611 8.389c-0.52-0.52-1.365-0.52-1.885 0l-5.725 5.725-5.723-5.725c-0.52-0.52-1.365-0.52-1.885 0s-0.52 1.365 0 1.885l5.723 5.725-5.725 5.723c-0.52 0.52-0.52 1.365 0 1.885 0.261 0.261 0.603 0.392 0.944 0.392s0.683-0.131 0.944-0.389l5.723-5.725 5.723 5.723c0.261 0.261 0.603 0.392 0.944 0.392s0.683-0.131 0.944-0.389c0.52-0.52 0.52-1.365 0-1.885l-5.725-5.725 5.723-5.723c0.523-0.523 0.523-1.365 0.003-1.888z"></path>
</svg>
