<!-- Generated by IcoMoon.io -->
<svg version="1.1" xmlns="http://www.w3.org/2000/svg" width="17" height="18" viewBox="0 0 17 18">
<title>Ambassador-18</title>
<path d="M16.764 0.076c-0.146-0.092-0.332-0.1-0.486-0.022l-3.778 1.887-3.775-1.887c-0.142-0.070-0.308-0.070-0.448 0l-3.777 1.887-3.776-1.887c-0.157-0.078-0.34-0.071-0.487 0.022-0.147 0.091-0.237 0.252-0.237 0.424v14c0 0.016 0.011 0.025 0.012 0.039 0.001 0.018-0.007 0.033-0.004 0.051 0.009 0.049 0.039 0.086 0.060 0.128 0.014 0.027 0.019 0.056 0.037 0.079 0.056 0.075 0.128 0.137 0.219 0.171l8 3c0.057 0.022 0.116 0.033 0.176 0.033 0.061 0 0.119-0.011 0.176-0.032l8-3c0.090-0.033 0.162-0.096 0.219-0.17 0.021-0.023 0.023-0.053 0.037-0.081 0.021-0.042 0.053-0.077 0.063-0.127 0.003-0.018-0.009-0.032-0.007-0.052 0-0.016 0.014-0.023 0.014-0.038v-14c-0.002-0.173-0.092-0.334-0.238-0.425zM1 6h15v7.398l-7.171-6.273c-0.188-0.165-0.47-0.165-0.658 0l-7.171 6.273v-7.398zM1 1.31l3.276 1.638c0.141 0.070 0.307 0.070 0.447 0l3.777-1.888 3.775 1.888c0.142 0.070 0.308 0.070 0.447 0l3.278-1.638v3.69h-15v-3.69zM1.458 14.326l7.042-6.16 7.041 6.162-7.041 2.639-7.042-2.641z"></path>
</svg>
