<!-- Generated by IcoMoon.io -->
<svg version="1.1" xmlns="http://www.w3.org/2000/svg" width="18" height="18" viewBox="0 0 18 18">
<title>Mute-18</title>
<path d="M15.5 13c-0.276 0-0.5 0.224-0.5 0.5v3.5h-2.349l-5.651-3.768v-8.464l5.651-3.768h2.349v3.5c0 0.276 0.224 0.5 0.5 0.5s0.5-0.224 0.5-0.5v-4c0-0.276-0.224-0.5-0.5-0.5h-3c-0.092 0-0.174 0.032-0.248 0.075-0.009 0.005-0.021 0.003-0.029 0.009l-5.874 3.916h-5.849c-0.276 0-0.5 0.224-0.5 0.5v9c0 0.276 0.224 0.5 0.5 0.5h5.849l5.874 3.916c0.009 0.006 0.021 0.004 0.029 0.009 0.074 0.044 0.156 0.075 0.248 0.075h3c0.276 0 0.5-0.224 0.5-0.5v-4c0-0.276-0.224-0.5-0.5-0.5zM1 5h5v8h-5v-8z"></path>
<path d="M15.207 8.469l2.646-2.646c0.195-0.195 0.195-0.512 0-0.707s-0.512-0.195-0.707 0l-2.646 2.646-2.646-2.646c-0.195-0.195-0.512-0.195-0.707 0s-0.195 0.512 0 0.707l2.646 2.646-2.646 2.646c-0.195 0.195-0.195 0.512 0 0.707 0.098 0.098 0.226 0.146 0.354 0.146s0.256-0.049 0.354-0.146l2.645-2.646 2.646 2.646c0.098 0.098 0.226 0.146 0.354 0.146s0.256-0.049 0.354-0.146c0.195-0.195 0.195-0.512 0-0.707l-2.647-2.646z"></path>
</svg>
