<!-- Generated by IcoMoon.io -->
<svg version="1.1" xmlns="http://www.w3.org/2000/svg" width="17" height="18" viewBox="0 0 17 18">
<title>Person-18</title>
<path d="M16.676 13.032l-6.927-2.598 2.975-1.487c0.169-0.085 0.276-0.258 0.276-0.447v-6c0-0.189-0.107-0.362-0.276-0.447l-4-2c-0.141-0.070-0.307-0.070-0.447 0l-4 2c-0.17 0.085-0.277 0.258-0.277 0.447v6c0 0.189 0.107 0.362 0.276 0.447l2.975 1.487-6.927 2.598c-0.195 0.073-0.324 0.26-0.324 0.468v4c0 0.276 0.224 0.5 0.5 0.5h16c0.276 0 0.5-0.224 0.5-0.5v-4c0-0.208-0.129-0.395-0.324-0.468zM5 2.809l3.5-1.75 3.5 1.75v5.382l-3.5 1.75-3.5-1.75v-5.382zM16 17h-15v-3.153l7.5-2.813 7.5 2.813v3.153z"></path>
</svg>
