<!-- Generated by IcoMoon.io -->
<svg version="1.1" xmlns="http://www.w3.org/2000/svg" width="18" height="18" viewBox="0 0 18 18">
<title>X-18</title>
<path d="M9.707 9l8.146-8.146c0.195-0.195 0.195-0.512 0-0.707s-0.512-0.195-0.707 0l-8.146 8.146-8.146-8.147c-0.195-0.195-0.512-0.195-0.707 0s-0.195 0.512 0 0.707l8.146 8.147-8.146 8.146c-0.195 0.195-0.195 0.512 0 0.707 0.097 0.098 0.225 0.147 0.353 0.147s0.256-0.049 0.354-0.146l8.146-8.147 8.146 8.146c0.098 0.098 0.226 0.147 0.354 0.147s0.256-0.049 0.354-0.146c0.195-0.195 0.195-0.512 0-0.707l-8.147-8.147z"></path>
</svg>
