<!-- Generated by IcoMoon.io -->
<svg version="1.1" xmlns="http://www.w3.org/2000/svg" width="32" height="32" viewBox="0 0 32 32">
<title>Hashtag-12</title>
<path d="M30.667 21.333h-5.813l0.968-10.667h4.845c0.736 0 1.333-0.597 1.333-1.333s-0.597-1.333-1.333-1.333h-4.6l0.595-6.547c0.067-0.733-0.475-1.381-1.208-1.448-0.68-0.072-1.384 0.472-1.448 1.208l-0.616 6.787h-13.323l0.595-6.547c0.067-0.733-0.475-1.381-1.208-1.448-0.733-0.075-1.379 0.475-1.448 1.208l-0.616 6.787h-6.056c-0.736 0-1.333 0.597-1.333 1.333s0.597 1.333 1.333 1.333h5.813l-0.971 10.667h-4.843c-0.736 0-1.333 0.597-1.333 1.333s0.597 1.333 1.333 1.333h4.6l-0.595 6.547c-0.067 0.731 0.475 1.381 1.208 1.448 0.040 0.003 0.080 0.005 0.12 0.005 0.683 0 1.264-0.52 1.328-1.213l0.616-6.787h13.323l-0.597 6.547c-0.067 0.731 0.475 1.381 1.208 1.448 0.043 0.003 0.083 0.005 0.125 0.005 0.68 0 1.264-0.52 1.325-1.213l0.616-6.787h6.056c0.736 0 1.333-0.597 1.333-1.333s-0.597-1.333-1.333-1.333zM8.853 21.333l0.971-10.667h13.323l-0.971 10.667h-13.323z"></path>
</svg>
