<!-- Generated by IcoMoon.io -->
<svg version="1.1" xmlns="http://www.w3.org/2000/svg" width="18" height="18" viewBox="0 0 18 18">
<title>Resume-18</title>
<path d="M17.5 0h-17c-0.276 0-0.5 0.224-0.5 0.5v17c0 0.276 0.224 0.5 0.5 0.5h17c0.276 0 0.5-0.224 0.5-0.5v-17c0-0.276-0.224-0.5-0.5-0.5zM3 17v-2.14l2.5-0.833 2.5 0.833v2.14h-5zM5.5 12.941l-1.5-0.75v-2.382l1.5-0.75 1.5 0.75v2.382l-1.5 0.75zM17 17h-8v-2.5c0-0.215-0.138-0.406-0.342-0.475l-1.854-0.618 0.92-0.46c0.169-0.085 0.276-0.258 0.276-0.447v-3c0-0.189-0.107-0.362-0.276-0.447l-2-1c-0.141-0.070-0.307-0.070-0.447 0l-2 1c-0.17 0.085-0.277 0.258-0.277 0.447v3c0 0.189 0.107 0.362 0.276 0.447l0.92 0.46-1.854 0.618c-0.204 0.069-0.342 0.26-0.342 0.475v2.5h-1v-16h16v16z"></path>
<path d="M2 2h14v1h-14v-1z"></path>
<path d="M2 4h14v1h-14v-1z"></path>
<path d="M11 6h5v1h-5v-1z"></path>
<path d="M11 8h5v1h-5v-1z"></path>
<path d="M11 10h5v1h-5v-1z"></path>
<path d="M11 12h5v1h-5v-1z"></path>
<path d="M11 14h5v1h-5v-1z"></path>
</svg>
