<!-- Generated by IcoMoon.io -->
<svg version="1.1" xmlns="http://www.w3.org/2000/svg" width="18" height="18" viewBox="0 0 18 18">
<title>Star-Filled-18</title>
<path d="M17.976 6.954c-0.063-0.191-0.232-0.327-0.433-0.344l-5.813-0.498-2.27-5.374c-0.157-0.371-0.766-0.371-0.921 0l-2.269 5.374-5.813 0.498c-0.2 0.017-0.371 0.153-0.433 0.344s-0.004 0.401 0.148 0.532l4.409 3.819-1.321 5.681c-0.046 0.195 0.030 0.399 0.193 0.518 0.164 0.119 0.381 0.129 0.552 0.023l4.995-3.010 4.996 3.012c0.079 0.048 0.169 0.071 0.258 0.071 0.104 0 0.207-0.032 0.294-0.096 0.162-0.118 0.238-0.322 0.193-0.518l-1.322-5.681 4.408-3.819c0.152-0.131 0.211-0.341 0.149-0.532z"></path>
</svg>
