<!-- Generated by IcoMoon.io -->
<svg version="1.1" xmlns="http://www.w3.org/2000/svg" width="32" height="32" viewBox="0 0 32 32">
<title>Briefcase-24</title>
<path d="M31.333 8h-8.667v-7.333c0-0.368-0.299-0.667-0.667-0.667h-12c-0.368 0-0.667 0.299-0.667 0.667v7.333h-8.667c-0.368 0-0.667 0.299-0.667 0.667v22.667c0 0.368 0.299 0.667 0.667 0.667h30.667c0.368 0 0.667-0.299 0.667-0.667v-22.667c0-0.368-0.299-0.667-0.667-0.667zM21.333 1.333v1.333h-10.667v-1.333h10.667zM10.667 4h10.667v4h-10.667v-4zM1.333 30.667v-14.409l10.861 3.621 1.209 2.419c0.113 0.227 0.344 0.369 0.596 0.369h4c0.252 0 0.483-0.143 0.596-0.368l1.209-2.419 10.861-3.623v14.409h-29.333zM13.745 20h4.509l-0.667 1.333h-3.176l-0.667-1.333zM30.667 14.853l-11.441 3.813h-6.451l-11.441-3.813v-5.52h29.333v5.52z"></path>
</svg>
