<!-- Generated by IcoMoon.io -->
<svg version="1.1" xmlns="http://www.w3.org/2000/svg" width="17" height="18" viewBox="0 0 17 18">
<title>Globe-18</title>
<path d="M16.955 4.343c-0.011-0.031-0.010-0.063-0.025-0.091-0.049-0.083-0.117-0.154-0.206-0.199l-8-4c-0.141-0.070-0.307-0.070-0.447 0l-8 4c-0.17 0.085-0.277 0.258-0.277 0.447v9c0 0.189 0.107 0.362 0.276 0.447l8 4c0.071 0.035 0.147 0.053 0.224 0.053s0.153-0.018 0.224-0.053l8-4c0.169-0.085 0.276-0.258 0.276-0.447v-9c0-0.057-0.026-0.105-0.045-0.157zM15.067 4.343l-2.414 0.604-1.31-1.309 1.157-0.579 2.567 1.284zM1 4.809l1.401-0.701 0.745 0.745c0.153 0.153 0.385 0.191 0.577 0.094l1.777-0.888 1.27 0.635-1.591 2.386-2.837 0.946c-0.125 0.042-0.229 0.132-0.289 0.25l-1 2c-0.035 0.071-0.053 0.146-0.053 0.22v-5.687zM1 10.503c0.001 0.129 0.051 0.256 0.146 0.351l1 1c0.055 0.055 0.122 0.097 0.195 0.121l2.526 0.842-0.66 1.979-3.207-1.605v-2.688zM8.5 16.941l-3.389-1.694 0.863-2.589c0.087-0.262-0.054-0.545-0.316-0.633l-2.888-0.962-0.662-0.661 0.746-1.493 2.804-0.935c0.106-0.035 0.196-0.104 0.258-0.197l2-3c0.080-0.119 0.104-0.267 0.067-0.405-0.037-0.139-0.131-0.255-0.26-0.319l-2-1c-0.141-0.070-0.307-0.070-0.447 0l-1.677 0.839-0.255-0.255 5.156-2.578 2.882 1.441-1.105 0.553c-0.144 0.072-0.244 0.208-0.27 0.367s0.026 0.32 0.14 0.434l2 2c0.094 0.094 0.222 0.146 0.353 0.146 0.040 0 0.081-0.005 0.121-0.015l3.379-0.845v2.86h-2.293l-0.854-0.854c-0.093-0.093-0.22-0.146-0.353-0.146h-4c-0.189 0-0.362 0.107-0.447 0.276l-1 2c-0.059 0.119-0.069 0.256-0.027 0.382l1 3c0.054 0.162 0.187 0.285 0.353 0.327l3.621 0.906v1.301l-3.5 1.749zM16 13.191l-3 1.5v-1.191c0-0.229-0.156-0.43-0.379-0.485l-3.733-0.934-0.848-2.542 0.769-1.539h3.484l0.854 0.854c0.093 0.093 0.22 0.146 0.353 0.146h2.5v4.191z"></path>
</svg>
