<!-- Generated by IcoMoon.io -->
<svg version="1.1" xmlns="http://www.w3.org/2000/svg" width="19" height="18" viewBox="0 0 19 18">
<title>Channel-Leave-18</title>
<path d="M12.263 10.596c-0.285-0.053-0.56 0.146-0.609 0.435l-0.986 5.91h-9.54l1.985-15.882h10.555l-0.956 5.737c-0.049 0.288 0.147 0.561 0.435 0.609 0.283 0.048 0.56-0.147 0.609-0.435l1.059-6.353c0.025-0.154-0.018-0.31-0.118-0.429-0.102-0.12-0.249-0.187-0.404-0.187h-11.647c-0.267 0-0.492 0.199-0.525 0.464l-2.118 16.941c-0.019 0.151 0.028 0.303 0.128 0.417 0.101 0.112 0.245 0.178 0.397 0.178h10.588c0.258 0 0.48-0.187 0.522-0.443l1.059-6.353c0.049-0.288-0.147-0.561-0.435-0.609z"></path>
<path d="M19.019 9.202c0.053-0.129 0.053-0.275 0-0.404-0.026-0.066-0.067-0.124-0.115-0.173l-3.175-3.176c-0.206-0.206-0.542-0.206-0.749 0s-0.206 0.542 0 0.749l2.272 2.273h-10.369c-0.292 0-0.529 0.237-0.529 0.529s0.237 0.529 0.529 0.529h10.369l-2.272 2.272c-0.206 0.206-0.206 0.542 0 0.749 0.103 0.104 0.238 0.156 0.374 0.156s0.271-0.052 0.375-0.155l3.175-3.176c0.049-0.049 0.089-0.108 0.115-0.173z"></path>
</svg>
