<!-- Generated by IcoMoon.io -->
<svg version="1.1" xmlns="http://www.w3.org/2000/svg" width="18" height="18" viewBox="0 0 18 18">
<title>Briefcase-18</title>
<path d="M17.5 3h-4.64l-0.886-2.658c-0.068-0.204-0.259-0.342-0.474-0.342h-5c-0.215 0-0.406 0.138-0.474 0.342l-0.886 2.658h-4.64c-0.276 0-0.5 0.224-0.5 0.5v14c0 0.276 0.224 0.5 0.5 0.5h17c0.276 0 0.5-0.224 0.5-0.5v-14c0-0.276-0.224-0.5-0.5-0.5zM6.86 1h4.279l0.667 2h-5.612l0.666-2zM1 17v-8.691l5.127 2.564 0.925 1.851c0.086 0.169 0.259 0.276 0.448 0.276h3c0.189 0 0.362-0.107 0.447-0.276l0.926-1.851 5.127-2.564v8.691h-16zM7.309 11h3.382l-0.5 1h-2.382l-0.5-1zM17 7.191l-5.618 2.809h-4.764l-5.618-2.809v-3.191h16v3.191z"></path>
</svg>
