<!-- Generated by IcoMoon.io -->
<svg version="1.1" xmlns="http://www.w3.org/2000/svg" width="17" height="18" viewBox="0 0 17 18">
<title>Teacher-Student-18</title>
<path d="M16.658 13.025l-1.854-0.618 0.92-0.46c0.169-0.085 0.276-0.258 0.276-0.447v-3c0-0.189-0.107-0.362-0.276-0.447l-2-1c-0.141-0.070-0.307-0.070-0.447 0l-2 1c-0.17 0.085-0.277 0.258-0.277 0.447v3c0 0.189 0.107 0.362 0.276 0.447l0.92 0.46-1.854 0.618c-0.204 0.069-0.342 0.26-0.342 0.475v4c0 0.276 0.224 0.5 0.5 0.5h6c0.276 0 0.5-0.224 0.5-0.5v-4c0-0.215-0.138-0.406-0.342-0.475zM12 8.809l1.5-0.75 1.5 0.75v2.382l-1.5 0.75-1.5-0.75v-2.382zM16 17h-5v-3.14l2.5-0.833 2.5 0.833v3.14z"></path>
<path d="M8.649 9.273l-3-0.938 2.129-1.419c0.139-0.093 0.222-0.249 0.222-0.416v-4c0-0.167-0.083-0.323-0.223-0.416l-3-2c-0.168-0.112-0.387-0.112-0.555 0l-3 2c-0.139 0.093-0.222 0.249-0.222 0.416v4c0 0.167 0.083 0.323 0.223 0.416l2.129 1.419-3 0.938c-0.21 0.065-0.352 0.258-0.352 0.477v7.75c0 0.276 0.224 0.5 0.5 0.5h8c0.276 0 0.5-0.224 0.5-0.5v-7.75c0-0.219-0.142-0.412-0.351-0.477zM2 2.768l2.5-1.667 2.5 1.667v3.465l-2.5 1.666-2.5-1.667v-3.464zM8 17h-7v-6.883l3.5-1.093 3.5 1.093v6.883z"></path>
<path d="M16.5 0h-6c-0.276 0-0.5 0.224-0.5 0.5v4c0 0.276 0.224 0.5 0.5 0.5h6c0.276 0 0.5-0.224 0.5-0.5v-4c0-0.276-0.224-0.5-0.5-0.5zM16 4h-5v-3h5v3z"></path>
</svg>
