<!-- Generated by IcoMoon.io -->
<svg version="1.1" xmlns="http://www.w3.org/2000/svg" width="15" height="18" viewBox="0 0 15 18">
<title>Trash-18</title>
<path d="M4.5 16c0.276 0 0.5-0.224 0.5-0.5v-9c0-0.276-0.224-0.5-0.5-0.5s-0.5 0.224-0.5 0.5v9c0 0.276 0.224 0.5 0.5 0.5z"></path>
<path d="M7.5 16c0.276 0 0.5-0.224 0.5-0.5v-9c0-0.276-0.224-0.5-0.5-0.5s-0.5 0.224-0.5 0.5v9c0 0.276 0.224 0.5 0.5 0.5z"></path>
<path d="M10.5 16c0.276 0 0.5-0.224 0.5-0.5v-9c0-0.276-0.224-0.5-0.5-0.5s-0.5 0.224-0.5 0.5v9c0 0.276 0.224 0.5 0.5 0.5z"></path>
<path d="M14.5 2h-3.5v-1.5c0-0.276-0.224-0.5-0.5-0.5h-6c-0.276 0-0.5 0.224-0.5 0.5v1.5h-3.5c-0.276 0-0.5 0.224-0.5 0.5v2c0 0.276 0.224 0.5 0.5 0.5h0.537l0.964 12.538c0.020 0.261 0.238 0.462 0.499 0.462h10c0.262 0 0.479-0.201 0.498-0.462l0.965-12.538h0.537c0.276 0 0.5-0.224 0.5-0.5v-2c0-0.276-0.224-0.5-0.5-0.5zM5 1h5v1h-5v-1zM12.037 17h-9.074l-0.923-12h10.92l-0.923 12zM14 4h-13v-1h13v1z"></path>
</svg>
