<!-- Generated by IcoMoon.io -->
<svg version="1.1" xmlns="http://www.w3.org/2000/svg" width="31" height="32" viewBox="0 0 31 32">
<title>Cake-24</title>
<path d="M30.211 21.367l-3.544-1.179v-8.855c0-0.252-0.143-0.483-0.367-0.596l-5.333-2.667c-0.095-0.047-0.197-0.071-0.3-0.071h-4.667v-4h-1.333v4h-4.667c-0.104 0-0.205 0.024-0.299 0.071l-5.333 2.667c-0.225 0.113-0.368 0.344-0.368 0.596v8.855l-3.544 1.18c-0.272 0.091-0.456 0.345-0.456 0.632v6.667c0 0.252 0.143 0.481 0.368 0.596l5.333 2.667c0.093 0.044 0.195 0.071 0.299 0.071h18.667c0.103 0 0.205-0.027 0.3-0.071l5.333-2.667c0.224-0.115 0.367-0.344 0.367-0.596v-6.667c0-0.287-0.185-0.541-0.456-0.633zM25.333 13.588l-4.824 2.412h-10.352l-4.824-2.412v-1.176l4.368 2.184c0.093 0.047 0.195 0.071 0.299 0.071h10.667c0.103 0 0.205-0.024 0.3-0.071l4.367-2.184v1.176zM5.333 15.079l4.368 2.184c0.093 0.047 0.195 0.071 0.299 0.071h10.667c0.103 0 0.205-0.024 0.3-0.071l4.367-2.184v9.176l-4.824 2.412h-10.352l-4.824-2.412v-9.176zM10.157 9.333h4.509v2.667h1.333v-2.667h4.509l4 2-4 2h-10.352l-4-2 4-2zM29.333 28.255l-4.824 2.412h-18.352l-4.824-2.412v-5.776l2.667-0.888v3.076c0 0.252 0.143 0.481 0.368 0.596l5.333 2.667c0.093 0.044 0.195 0.071 0.299 0.071h10.667c0.103 0 0.205-0.027 0.3-0.071l5.333-2.667c0.224-0.115 0.367-0.344 0.367-0.596v-3.076l2.667 0.888v5.776z"></path>
<path d="M15.333 2.667c0.171 0 0.341-0.065 0.472-0.195l1.333-1.333c0.26-0.26 0.26-0.683 0-0.943-0.259-0.26-0.683-0.26-0.943 0l-1.333 1.333c-0.26 0.26-0.26 0.683 0 0.943 0.129 0.129 0.3 0.195 0.471 0.195z"></path>
</svg>
