<!-- Generated by IcoMoon.io -->
<svg version="1.1" xmlns="http://www.w3.org/2000/svg" width="40" height="36" viewBox="0 0 40 36">
<title>Congrats-18</title>
<path d="M35.177 22.781c-0.036-4.367-0.655-6.539-3.719-9.603-1.654-1.654-2.354-2.675-2.731-3.224-0.349-0.509-0.68-0.992-1.363-0.992-1.114 0-1.789 0.347-2.227 0.763-0.225-0.221-0.488-0.378-0.869-0.378-0.563 0-1.033 0.117-1.449 0.299l-3.215-3.382c-0.756-0.756-1.523-0.914-2.030-0.914-0.666 0-1.276 0.29-1.762 0.747-0.533-0.23-1.098-0.295-1.652-0.14-0.698 0.194-1.283 0.711-1.633 1.382-0.248 0.094-0.475 0.227-0.686 0.382-1.168-0.326-2.376-0.016-3.092 0.904-0.497 0.639-0.63 1.415-0.482 2.196-0.808 0.070-1.465 0.491-1.841 1.040-0.724 1.051-0.698 2.853 1.064 4.324 0.013 0.011 0.032 0.029 0.045 0.040-0.126 0.085-0.243 0.176-0.346 0.279-0.866 0.868-1.154 2.52-0.239 3.434l8.104 8.104c0.049 0.047 0.101 0.092 0.158 0.126 0.155 0.097 3.641 2.259 6.628 2.5l2.284 3.854c0.164 0.275 0.459 0.441 0.774 0.441 0.038 0 0.079-0.002 0.119-0.009 0.050-0.007 1.098-0.151 2.522-0.716l1.1 1.377c0.175 0.216 0.434 0.338 0.704 0.338 0.072 0 0.146-0.009 0.218-0.027 0.263-0.067 6.435-1.69 9.031-9.479 0.115-0.347 0.009-0.729-0.268-0.968l-3.145-2.696zM10.17 9.729c0.131-0.169 0.353-0.308 0.637-0.353-0.072 0.362-0.097 0.731-0.023 1.102-0.256 0.022-0.499 0.081-0.727 0.171-0.108-0.342-0.083-0.664 0.113-0.92zM7.909 12.879c0.13-0.187 0.335-0.274 0.583-0.274-0.16 0.976 0.16 2.257 1.507 3.38 0.025 0.022 0.052 0.045 0.081 0.068-0.016 0.009-0.027 0.027-0.041 0.036-0.641-0.623-1.087-1.035-1.4-1.292-0.895-0.745-1.004-1.517-0.729-1.919zM8.222 18.664c-0.076-0.079-0.061-0.59 0.245-0.893 0.068-0.067 0.207-0.194 0.499-0.032-0.196 0.819-0.038 1.625 0.479 2.142l6.822 6.82c-0.004-0.002-0.014-0.009-0.018-0.011l-8.026-8.026zM25.344 33.052l-1.296-2.185c0.301 0.052 0.603 0.108 0.896 0.126l1.404 1.757c-0.392 0.137-0.742 0.239-1.004 0.302zM29.655 34l-3.562-4.453c-0.171-0.212-0.428-0.338-0.704-0.338-2.444 0-5.785-1.94-6.352-2.282l-8.321-8.32c-0.045-0.045-0.101-0.301 0.038-0.635 0.178-0.432 0.608-0.616 1.159-0.067l4.939 4.939c0.349 0.349 0.913 0.355 1.265 0.007 0.353-0.342 0.364-0.907 0.023-1.264-0.218-0.229-5.36-5.625-6.989-6.984-0.862-0.718-1.004-1.431-0.85-1.858 0.23-0.637 1.192-0.562 1.93 0.049l0.623 0.617c2.974 3.47 6.374 6.395 6.518 6.52 0.365 0.313 0.916 0.284 1.246-0.072 0.329-0.355 0.319-0.905-0.023-1.247l-6.374-6.372c-0.257-0.302-0.518-0.558-0.716-0.72l-0.319-0.319c-0.572-0.574-0.785-1.184-0.581-1.676 0.356-0.862 1.71-0.828 2.747 0.457l6.914 7.407c0.338 0.364 0.907 0.383 1.271 0.043 0.364-0.338 0.383-0.907 0.045-1.271l-6.444-6.937c-0.621-0.619-0.466-1.22-0.373-1.449 0.157-0.374 0.482-0.626 0.812-0.626 0.306 0 0.581 0.211 0.743 0.371l3.699 3.888c0.005 0.005 0.007 0.014 0.014 0.022 0.005 0.004 0.011 0.005 0.014 0.009l3.796 3.989c0.106 0.144 0.214 0.288 0.394 0.504l1.481 1.481c0.349 0.349 0.914 0.351 1.264 0.007 0.353-0.344 0.364-0.907 0.025-1.264l-1.705-1.784c-1.037-1.431-1.316-2.693-1.058-3.197 0.139-0.272 0.509-0.373 0.864-0.401 0.040 0.058 0.085 0.122 0.135 0.2 0.41 0.596 1.17 1.705 2.943 3.478 2.752 2.754 3.193 4.513 3.193 8.746 0 0.263 0.113 0.511 0.315 0.684l2.986 2.561c-1.939 5.188-5.639 7.031-7.025 7.556z"></path>
<path d="M9.9 6.3c0.497 0 0.9-0.403 0.9-0.9v-3.6c0-0.497-0.403-0.9-0.9-0.9s-0.9 0.403-0.9 0.9v3.6c0 0.497 0.403 0.9 0.9 0.9z"></path>
<path d="M6.563 7.837c0.176 0.175 0.407 0.263 0.637 0.263s0.461-0.088 0.637-0.263c0.351-0.351 0.351-0.922 0-1.273l-3.6-3.6c-0.351-0.351-0.922-0.351-1.273 0s-0.351 0.922 0 1.273l3.598 3.6z"></path>
<path d="M6.3 9.9c0-0.497-0.403-0.9-0.9-0.9h-3.6c-0.497 0-0.9 0.403-0.9 0.9s0.403 0.9 0.9 0.9h3.6c0.497 0 0.9-0.403 0.9-0.9z"></path>
<path d="M29.7 8.1c0.497 0 0.9-0.403 0.9-0.9v-3.6c0-0.497-0.403-0.9-0.9-0.9s-0.9 0.403-0.9 0.9v3.6c0 0.497 0.403 0.9 0.9 0.9z"></path>
<path d="M32.4 9.9c0.23 0 0.461-0.088 0.637-0.263l3.6-3.6c0.351-0.351 0.351-0.922 0-1.273s-0.922-0.351-1.273 0l-3.6 3.6c-0.351 0.351-0.351 0.922 0 1.273 0.175 0.175 0.405 0.263 0.635 0.263z"></path>
<path d="M33.3 11.7c0 0.497 0.403 0.9 0.9 0.9h3.6c0.497 0 0.9-0.403 0.9-0.9s-0.403-0.9-0.9-0.9h-3.6c-0.497 0-0.9 0.403-0.9 0.9z"></path>
</svg>
