<!-- Generated by IcoMoon.io -->
<svg version="1.1" xmlns="http://www.w3.org/2000/svg" width="32" height="32" viewBox="0 0 32 32">
<title>Book-24</title>
<path d="M4.667 28c-0.368 0-0.667 0.299-0.667 0.667s0.299 0.667 0.667 0.667h25.333c0.368 0 0.667-0.299 0.667-0.667s-0.299-0.667-0.667-0.667h-25.333z"></path>
<path d="M24.667 6.667h-12c-0.368 0-0.667 0.299-0.667 0.667v6.667c0 0.368 0.299 0.667 0.667 0.667h12c0.368 0 0.667-0.299 0.667-0.667v-6.667c0-0.368-0.299-0.667-0.667-0.667zM24 13.333h-10.667v-5.333h10.667v5.333z"></path>
<path d="M31.333 0h-28c-0.029 0-0.056 0.013-0.085 0.017s-0.056 0.009-0.085 0.017c-0.115 0.031-0.221 0.080-0.301 0.161l-2.667 2.667c-0.124 0.124-0.195 0.293-0.195 0.471v25.333c0 0.115 0.040 0.224 0.099 0.325 0.015 0.028 0.029 0.049 0.049 0.075 0.017 0.024 0.027 0.051 0.048 0.072l2.667 2.667c0.124 0.124 0.293 0.195 0.471 0.195h28c0.368 0 0.667-0.299 0.667-0.667s-0.299-0.667-0.667-0.667h-27.724l-2-2 2-2h27.724c0.368 0 0.667-0.299 0.667-0.667v-25.333c0-0.368-0.299-0.667-0.667-0.667zM6.667 25.333v-24h19.057l4.943 4.943v14.115l-4.943 4.943h-19.057zM30.667 1.333v3.057l-3.057-3.057h3.057zM1.333 27.057v-23.448l1.333-1.333v23.448l-1.333 1.333zM4 25.333v-24h1.333v24h-1.333zM30.667 25.333h-3.057l3.057-3.057v3.057z"></path>
</svg>
