<!-- Generated by IcoMoon.io -->
<svg version="1.1" xmlns="http://www.w3.org/2000/svg" width="12" height="18" viewBox="0 0 12 18">
<title>Phone-18</title>
<path d="M7.5 2h-3c-0.276 0-0.5 0.224-0.5 0.5s0.224 0.5 0.5 0.5h3c0.276 0 0.5-0.224 0.5-0.5s-0.224-0.5-0.5-0.5z"></path>
<path d="M11.854 1.146l-1-1c-0.094-0.093-0.221-0.146-0.354-0.146h-9c-0.133 0-0.26 0.053-0.354 0.146l-1 1c-0.093 0.094-0.146 0.221-0.146 0.354v15c0 0.133 0.053 0.26 0.146 0.354l1 1c0.094 0.093 0.221 0.146 0.354 0.146h9c0.133 0 0.26-0.053 0.354-0.146l1-1c0.093-0.094 0.146-0.221 0.146-0.354v-15c0-0.133-0.053-0.26-0.146-0.354zM11 16.293l-0.707 0.707h-8.586l-0.707-0.707v-2.293h10v2.293zM11 13h-10v-11.293l0.707-0.707h8.586l0.707 0.707v11.293z"></path>
<path d="M5 15h2v1h-2v-1z"></path>
</svg>
