<!-- Generated by IcoMoon.io -->
<svg version="1.1" xmlns="http://www.w3.org/2000/svg" width="32" height="32" viewBox="0 0 32 32">
<title>Camera-Add-24</title>
<path d="M31.333 6.667h-4.8l-1.2-6.133c0-0.267-0.4-0.533-0.667-0.533h-13.333c-0.267 0-0.533 0.267-0.667 0.533l-1.2 6.133h-8.8c-0.4 0-0.667 0.267-0.667 0.667v24c0 0.4 0.267 0.667 0.667 0.667h30.667c0.4 0 0.667-0.267 0.667-0.667v-24c0-0.4-0.267-0.667-0.667-0.667zM30.667 30.667h-29.333v-22.667h8.667c0.267 0 0.533-0.267 0.667-0.533l1.2-6.133h12.267l1.2 6.133c0 0.267 0.4 0.533 0.667 0.533h4.667v22.667z"></path>
<path d="M15.333 5.333h5.333c0.4 0 0.667-0.267 0.667-0.667s-0.267-0.667-0.667-0.667h-5.333c-0.4 0-0.667 0.267-0.667 0.667s0.267 0.667 0.667 0.667z"></path>
<path d="M3.333 4h2.667c0.4 0 0.667-0.267 0.667-0.667s-0.267-0.667-0.667-0.667h-2.667c-0.4 0-0.667 0.267-0.667 0.667s0.267 0.667 0.667 0.667z"></path>
<path d="M17.733 10.8l-8 4c-0.267 0-0.4 0.267-0.4 0.533v8c0 0.267 0.133 0.533 0.4 0.533l8 4c0.133 0 0.133 0.133 0.267 0.133s0.267 0 0.267-0.133l8-4c0.267-0.133 0.4-0.4 0.4-0.533v-8c0-0.267-0.133-0.533-0.4-0.533l-8-4c-0.133-0.133-0.4-0.133-0.533 0zM25.333 22.933l-7.333 3.733-7.333-3.733v-7.2l7.333-3.733 7.333 3.733v7.2z"></path>
<path d="M17.333 15.333v3.333h-3.333c-0.4 0-0.667 0.267-0.667 0.667s0.267 0.667 0.667 0.667h3.333v3.333c0 0.4 0.267 0.667 0.667 0.667s0.667-0.267 0.667-0.667v-3.333h3.333c0.4 0 0.667-0.267 0.667-0.667s-0.267-0.667-0.667-0.667h-3.333v-3.333c0-0.4-0.267-0.667-0.667-0.667s-0.667 0.267-0.667 0.667z"></path>
</svg>
