<!-- Generated by IcoMoon.io -->
<svg version="1.1" xmlns="http://www.w3.org/2000/svg" width="17" height="18" viewBox="0 0 17 18">
<title>School-18</title>
<path d="M16.5 15h-0.5v-8.5c0-0.051-0.015-0.097-0.028-0.143-0.004-0.012-0.003-0.023-0.007-0.034-0.034-0.089-0.095-0.16-0.169-0.216-0.009-0.006-0.010-0.017-0.019-0.023l-3-2c-0.082-0.055-0.178-0.084-0.277-0.084h-3.5v-1h2.5c0.276 0 0.5-0.224 0.5-0.5v-2c0-0.276-0.224-0.5-0.5-0.5h-3.5v4h-3.5c-0.099 0-0.195 0.029-0.277 0.084l-3 2c-0.009 0.006-0.010 0.017-0.018 0.023-0.075 0.056-0.136 0.127-0.169 0.216-0.005 0.011-0.004 0.023-0.007 0.034-0.014 0.046-0.029 0.092-0.029 0.143v8.5h-0.5c-0.276 0-0.5 0.224-0.5 0.5v2c0 0.276 0.224 0.5 0.5 0.5h16c0.276 0 0.5-0.224 0.5-0.5v-2c0-0.276-0.224-0.5-0.5-0.5zM9 1h2v1h-2v-1zM4.651 5h7.698l1.5 1h-10.698l1.5-1zM2 7h13v8h-4v-2.5c0-0.276-0.224-0.5-0.5-0.5h-4c-0.276 0-0.5 0.224-0.5 0.5v2.5h-4v-8zM10 15h-3v-2h3v2zM16 17h-15v-1h15v1z"></path>
<path d="M8.146 10.854c0.098 0.097 0.226 0.146 0.354 0.146s0.256-0.049 0.354-0.146l1-1c0.195-0.195 0.195-0.512 0-0.707l-1-1c-0.195-0.195-0.512-0.195-0.707 0l-1 1c-0.195 0.195-0.195 0.512 0 0.707l0.999 1zM8.5 9.207l0.293 0.293-0.293 0.293-0.293-0.293 0.293-0.293z"></path>
</svg>
