<!-- Generated by IcoMoon.io -->
<svg version="1.1" xmlns="http://www.w3.org/2000/svg" width="17" height="18" viewBox="0 0 17 18">
<title>Diploma-18</title>
<path d="M10.947 9.276c-0.049-0.097-0.127-0.175-0.224-0.224l-2-1c-0.141-0.070-0.307-0.070-0.447 0l-2 1c-0.096 0.049-0.175 0.128-0.223 0.224l-1 2c-0.070 0.141-0.070 0.307 0 0.447l0.947 1.895v3.882c0 0.173 0.090 0.334 0.237 0.426 0.147 0.089 0.331 0.098 0.486 0.021l1.777-0.888 1.776 0.889c0.071 0.034 0.148 0.052 0.224 0.052 0.092 0 0.183-0.025 0.263-0.074 0.147-0.092 0.237-0.253 0.237-0.426v-3.882l0.947-1.895c0.070-0.141 0.070-0.307 0-0.447l-1-2zM6.873 9.873l1.627-0.814 1.627 0.813 0.814 1.627-0.814 1.627-1.627 0.815-1.627-0.814-0.814-1.627 0.814-1.627zM8.724 16.053c-0.071-0.035-0.147-0.053-0.224-0.053s-0.153 0.018-0.224 0.053l-1.276 0.638v-2.383l1.276 0.639c0.071 0.035 0.147 0.053 0.224 0.053s0.153-0.018 0.224-0.053l1.276-0.638v2.383l-1.276-0.639z"></path>
<path d="M16.5 0h-16c-0.276 0-0.5 0.224-0.5 0.5v15c0 0.276 0.224 0.5 0.5 0.5h3c0.276 0 0.5-0.224 0.5-0.5s-0.224-0.5-0.5-0.5h-2.5v-14h15v14h-2.5c-0.276 0-0.5 0.224-0.5 0.5s0.224 0.5 0.5 0.5h3c0.276 0 0.5-0.224 0.5-0.5v-15c0-0.276-0.224-0.5-0.5-0.5z"></path>
<path d="M11.5 4c0.276 0 0.5-0.224 0.5-0.5s-0.224-0.5-0.5-0.5h-6c-0.276 0-0.5 0.224-0.5 0.5s0.224 0.5 0.5 0.5h6z"></path>
<path d="M3 5.5c0 0.276 0.224 0.5 0.5 0.5h10c0.276 0 0.5-0.224 0.5-0.5s-0.224-0.5-0.5-0.5h-10c-0.276 0-0.5 0.224-0.5 0.5z"></path>
</svg>
