<!-- Generated by IcoMoon.io -->
<svg version="1.1" xmlns="http://www.w3.org/2000/svg" width="18" height="18" viewBox="0 0 18 18">
<title>Experience-18</title>
<path d="M17.5 0h-17c-0.276 0-0.5 0.224-0.5 0.5v17c0 0.276 0.224 0.5 0.5 0.5h17c0.276 0 0.5-0.224 0.5-0.5v-17c0-0.276-0.224-0.5-0.5-0.5zM17 17h-16v-3h16v3zM2.707 13l4.793-4.793 4.793 4.793h-9.586zM17 13h-3.293l-5.853-5.854c-0.195-0.195-0.512-0.195-0.707 0l-5.854 5.854h-0.293v-12h16v12z"></path>
<path d="M13.146 6.854c0.098 0.097 0.226 0.146 0.354 0.146s0.256-0.049 0.354-0.146l2-2c0.195-0.195 0.195-0.512 0-0.707l-2-2c-0.195-0.195-0.512-0.195-0.707 0l-2 2c-0.195 0.195-0.195 0.512 0 0.707l1.999 2zM13.5 3.207l1.293 1.293-1.293 1.293-1.293-1.293 1.293-1.293z"></path>
</svg>
