<!-- Generated by IcoMoon.io -->
<svg version="1.1" xmlns="http://www.w3.org/2000/svg" width="32" height="32" viewBox="0 0 32 32">
<title>Experience-5-24</title>
<path d="M31.333 0h-30.667c-0.368 0-0.667 0.299-0.667 0.667v30.667c0 0.368 0.299 0.667 0.667 0.667h30.667c0.368 0 0.667-0.299 0.667-0.667v-30.667c0-0.368-0.299-0.667-0.667-0.667zM30.667 30.667h-29.333v-4h29.333v4zM2.276 25.333l9.084-9.084 10.22 9.084h-19.304zM30.667 25.333h-7.080l-11.811-10.499c-0.263-0.236-0.665-0.223-0.915 0.027l-9.528 9.529v-23.057h29.333v24z"></path>
<path d="M22.844 9.12c0.384-0.064 0.751-0.096 1.099-0.096 0.717 0 1.291 0.172 1.716 0.517 0.427 0.344 0.64 0.84 0.64 1.488 0 0.704-0.239 1.284-0.715 1.739-0.505 0.476-1.14 0.715-1.909 0.715-0.761 0-1.369-0.192-1.824-0.576-0.476-0.399-0.721-0.945-0.736-1.643h1.291c0 0.363 0.121 0.629 0.361 0.8 0.243 0.171 0.552 0.256 0.928 0.256s0.688-0.123 0.933-0.368c0.245-0.245 0.368-0.553 0.368-0.923 0-0.704-0.476-1.056-1.429-1.056h-2.112l0.32-3.563h4.148v1.152h-2.933l-0.145 1.557z"></path>
</svg>
